<svg width="164" height="164" viewBox="0 0 164 164" fill="none" xmlns="http://www.w3.org/2000/svg">
<rect width="164" height="164" rx="32" fill="#1262F8"/>
<path d="M78.0669 30.2344C78.8748 25.8724 85.1252 25.8724 85.9331 30.2344L92.8746 67.7108C93.2628 69.8067 95.2264 71.23 97.339 70.9469L136.27 65.7296C140.745 65.1298 142.63 71.2475 138.593 73.2704L104.341 90.4321C102.347 91.4309 101.555 93.867 102.58 95.8472L119.862 129.231C121.916 133.199 116.906 137.037 113.609 134.021L84.7001 107.57C83.1717 106.172 80.8283 106.172 79.2999 107.57L50.3909 134.021C47.0942 137.037 42.0843 133.199 44.1385 129.231L61.4199 95.8472C62.445 93.867 61.653 91.4309 59.6595 90.4321L25.4073 73.2704C21.3699 71.2475 23.2546 65.1298 27.7304 65.7296L66.661 70.9469C68.7736 71.23 70.7372 69.8067 71.1254 67.7108L78.0669 30.2344Z" fill="white"/>
</svg>
