<svg xmlns="http://www.w3.org/2000/svg" x="0px" y="0px"
width="48" height="48"
viewBox="0 0 172 172"
style=" fill:#000000;"><defs><radialGradient cx="69.68365" cy="82.38783" r="86.99471" gradientUnits="userSpaceOnUse" id="color-1_C93WggfjREpS_gr1"><stop offset="0" stop-color="#ffe16e"></stop><stop offset="0.629" stop-color="#ffd226"></stop><stop offset="0.75" stop-color="#fdcd23"></stop><stop offset="0.9" stop-color="#f6bd1b"></stop><stop offset="1" stop-color="#f0af13"></stop></radialGradient><linearGradient x1="59.38577" y1="104.51862" x2="62.03984" y2="88.77513" gradientUnits="userSpaceOnUse" id="color-2_C93WggfjREpS_gr2"><stop offset="0" stop-color="#fcc822" stop-opacity="0.6"></stop><stop offset="0.999" stop-color="#ffd32b"></stop><stop offset="1" stop-color="#ffd32b"></stop></linearGradient><linearGradient x1="59.38825" y1="104.53273" x2="62.00737" y2="88.9009" gradientUnits="userSpaceOnUse" id="color-3_C93WggfjREpS_gr3"><stop offset="0" stop-color="#fbc622" stop-opacity="0.64"></stop><stop offset="0.999" stop-color="#ffd32b"></stop><stop offset="1" stop-color="#ffd32b"></stop></linearGradient><linearGradient x1="59.39074" y1="104.54685" x2="61.97199" y2="89.03082" gradientUnits="userSpaceOnUse" id="color-4_C93WggfjREpS_gr4"><stop offset="0" stop-color="#fbc322" stop-opacity="0.68"></stop><stop offset="0.999" stop-color="#ffd32b"></stop><stop offset="1" stop-color="#ffd32b"></stop></linearGradient><linearGradient x1="59.39737" y1="104.56388" x2="61.9472" y2="89.15888" gradientUnits="userSpaceOnUse" id="color-5_C93WggfjREpS_gr5"><stop offset="0" stop-color="#fac122" stop-opacity="0.72"></stop><stop offset="0.999" stop-color="#ffd32b"></stop><stop offset="1" stop-color="#ffd32b"></stop></linearGradient><linearGradient x1="59.39217" y1="104.5757" x2="61.91058" y2="89.28174" gradientUnits="userSpaceOnUse" id="color-6_C93WggfjREpS_gr6"><stop offset="0" stop-color="#fabe22" stop-opacity="0.76"></stop><stop offset="0.999" stop-color="#ffd32b"></stop><stop offset="1" stop-color="#ffd32b"></stop></linearGradient><linearGradient x1="59.39818" y1="104.5892" x2="61.88059" y2="89.42162" gradientUnits="userSpaceOnUse" id="color-7_C93WggfjREpS_gr7"><stop offset="0" stop-color="#f9bc21" stop-opacity="0.8"></stop><stop offset="0.999" stop-color="#ffd32b"></stop><stop offset="1" stop-color="#ffd32b"></stop></linearGradient><linearGradient x1="59.40066" y1="104.60332" x2="61.85103" y2="89.54324" gradientUnits="userSpaceOnUse" id="color-8_C93WggfjREpS_gr8"><stop offset="0" stop-color="#f9b921" stop-opacity="0.84"></stop><stop offset="0.999" stop-color="#ffd32b"></stop><stop offset="1" stop-color="#ffd32b"></stop></linearGradient><linearGradient x1="59.4102" y1="104.61619" x2="61.82624" y2="89.6713" gradientUnits="userSpaceOnUse" id="color-9_C93WggfjREpS_gr9"><stop offset="0" stop-color="#f8b721" stop-opacity="0.88"></stop><stop offset="0.999" stop-color="#ffd32b"></stop><stop offset="1" stop-color="#ffd32b"></stop></linearGradient><linearGradient x1="59.41559" y1="104.62616" x2="61.80083" y2="89.79583" gradientUnits="userSpaceOnUse" id="color-10_C93WggfjREpS_gr10"><stop offset="0" stop-color="#f8b421" stop-opacity="0.92"></stop><stop offset="0.999" stop-color="#ffd32b"></stop><stop offset="1" stop-color="#ffd32b"></stop></linearGradient><linearGradient x1="59.55672" y1="104.66321" x2="61.91115" y2="89.94744" gradientUnits="userSpaceOnUse" id="color-11_C93WggfjREpS_gr11"><stop offset="0" stop-color="#f7b221" stop-opacity="0.96"></stop><stop offset="0.999" stop-color="#ffd32b"></stop><stop offset="1" stop-color="#ffd32b"></stop></linearGradient><linearGradient x1="59.72317" y1="104.69944" x2="62.03974" y2="90.09947" gradientUnits="userSpaceOnUse" id="color-12_C93WggfjREpS_gr12"><stop offset="0" stop-color="#f7af21"></stop><stop offset="1" stop-color="#ffd32b"></stop></linearGradient><linearGradient x1="80.59792" y1="105.62216" x2="83.25551" y2="89.87805" gradientUnits="userSpaceOnUse" id="color-13_C93WggfjREpS_gr13"><stop offset="0" stop-color="#fcc822" stop-opacity="0.6"></stop><stop offset="0.999" stop-color="#ffd32b"></stop><stop offset="1" stop-color="#ffd32b"></stop></linearGradient><linearGradient x1="80.59687" y1="105.6369" x2="83.21951" y2="90.00444" gradientUnits="userSpaceOnUse" id="color-14_C93WggfjREpS_gr14"><stop offset="0" stop-color="#fbc622" stop-opacity="0.64"></stop><stop offset="0.999" stop-color="#ffd32b"></stop><stop offset="1" stop-color="#ffd32b"></stop></linearGradient><linearGradient x1="80.59935" y1="105.65101" x2="83.18766" y2="90.13374" gradientUnits="userSpaceOnUse" id="color-15_C93WggfjREpS_gr15"><stop offset="0" stop-color="#fbc322" stop-opacity="0.68"></stop><stop offset="0.999" stop-color="#ffd32b"></stop><stop offset="1" stop-color="#ffd32b"></stop></linearGradient><linearGradient x1="80.60951" y1="105.66742" x2="83.16287" y2="90.2618" gradientUnits="userSpaceOnUse" id="color-16_C93WggfjREpS_gr16"><stop offset="0" stop-color="#fac122" stop-opacity="0.72"></stop><stop offset="0.999" stop-color="#ffd32b"></stop><stop offset="1" stop-color="#ffd32b"></stop></linearGradient><linearGradient x1="80.61137" y1="105.67801" x2="83.12916" y2="90.38051" gradientUnits="userSpaceOnUse" id="color-17_C93WggfjREpS_gr17"><stop offset="0" stop-color="#fabe22" stop-opacity="0.76"></stop><stop offset="0.999" stop-color="#ffd32b"></stop><stop offset="1" stop-color="#ffd32b"></stop></linearGradient><linearGradient x1="80.61385" y1="105.69212" x2="83.09626" y2="90.52455" gradientUnits="userSpaceOnUse" id="color-18_C93WggfjREpS_gr18"><stop offset="0" stop-color="#f9bc21" stop-opacity="0.8"></stop><stop offset="0.999" stop-color="#ffd32b"></stop><stop offset="1" stop-color="#ffd32b"></stop></linearGradient><linearGradient x1="80.61986" y1="105.70562" x2="83.07023" y2="90.64554" gradientUnits="userSpaceOnUse" id="color-19_C93WggfjREpS_gr19"><stop offset="0" stop-color="#f9b921" stop-opacity="0.84"></stop><stop offset="0.999" stop-color="#ffd32b"></stop><stop offset="1" stop-color="#ffd32b"></stop></linearGradient><linearGradient x1="80.61819" y1="105.71683" x2="83.03838" y2="90.77484" gradientUnits="userSpaceOnUse" id="color-20_C93WggfjREpS_gr20"><stop offset="0" stop-color="#f8b721" stop-opacity="0.88"></stop><stop offset="0.999" stop-color="#ffd32b"></stop><stop offset="1" stop-color="#ffd32b"></stop></linearGradient><linearGradient x1="80.62773" y1="105.7297" x2="83.01297" y2="90.89937" gradientUnits="userSpaceOnUse" id="color-21_C93WggfjREpS_gr21"><stop offset="0" stop-color="#f8b421" stop-opacity="0.92"></stop><stop offset="0.999" stop-color="#ffd32b"></stop><stop offset="1" stop-color="#ffd32b"></stop></linearGradient><linearGradient x1="80.77177" y1="105.7626" x2="83.12267" y2="91.04745" gradientUnits="userSpaceOnUse" id="color-22_C93WggfjREpS_gr22"><stop offset="0" stop-color="#f7b221" stop-opacity="0.96"></stop><stop offset="0.999" stop-color="#ffd32b"></stop><stop offset="1" stop-color="#ffd32b"></stop></linearGradient><linearGradient x1="80.93884" y1="105.80237" x2="83.25832" y2="91.19825" gradientUnits="userSpaceOnUse" id="color-23_C93WggfjREpS_gr23"><stop offset="0" stop-color="#f7af21"></stop><stop offset="1" stop-color="#ffd32b"></stop></linearGradient><linearGradient x1="38.1687" y1="105.72623" x2="40.82214" y2="89.97922" gradientUnits="userSpaceOnUse" id="color-24_C93WggfjREpS_gr24"><stop offset="0" stop-color="#fac722" stop-opacity="0.6"></stop><stop offset="0.999" stop-color="#fdcd23"></stop><stop offset="1" stop-color="#fdcd23"></stop></linearGradient><linearGradient x1="38.17409" y1="105.7362" x2="40.7932" y2="90.10437" gradientUnits="userSpaceOnUse" id="color-25_C93WggfjREpS_gr25"><stop offset="0" stop-color="#f8c322" stop-opacity="0.64"></stop><stop offset="0.999" stop-color="#fdcd23"></stop><stop offset="1" stop-color="#fdcd23"></stop></linearGradient><linearGradient x1="38.17657" y1="105.75032" x2="40.76135" y2="90.23367" gradientUnits="userSpaceOnUse" id="color-26_C93WggfjREpS_gr26"><stop offset="0" stop-color="#f7bf22" stop-opacity="0.68"></stop><stop offset="0.999" stop-color="#fdcd23"></stop><stop offset="1" stop-color="#fdcd23"></stop></linearGradient><linearGradient x1="38.17552" y1="105.76505" x2="40.72888" y2="90.35943" gradientUnits="userSpaceOnUse" id="color-27_C93WggfjREpS_gr27"><stop offset="0" stop-color="#f5bb22" stop-opacity="0.72"></stop><stop offset="0.999" stop-color="#fdcd23"></stop><stop offset="1" stop-color="#fdcd23"></stop></linearGradient><linearGradient x1="38.18215" y1="105.78208" x2="40.70409" y2="90.48749" gradientUnits="userSpaceOnUse" id="color-28_C93WggfjREpS_gr28"><stop offset="0" stop-color="#f3b722" stop-opacity="0.76"></stop><stop offset="0.999" stop-color="#fdcd23"></stop><stop offset="1" stop-color="#fdcd23"></stop></linearGradient><linearGradient x1="38.18339" y1="105.78914" x2="40.66995" y2="90.62447" gradientUnits="userSpaceOnUse" id="color-29_C93WggfjREpS_gr29"><stop offset="0" stop-color="#f1b421" stop-opacity="0.8"></stop><stop offset="0.999" stop-color="#fdcd23"></stop><stop offset="1" stop-color="#fdcd23"></stop></linearGradient><linearGradient x1="38.18587" y1="105.80326" x2="40.63624" y2="90.74318" gradientUnits="userSpaceOnUse" id="color-30_C93WggfjREpS_gr30"><stop offset="0" stop-color="#efb021" stop-opacity="0.84"></stop><stop offset="0.999" stop-color="#fdcd23"></stop><stop offset="1" stop-color="#fdcd23"></stop></linearGradient><linearGradient x1="38.19188" y1="105.81675" x2="40.60854" y2="90.87539" gradientUnits="userSpaceOnUse" id="color-31_C93WggfjREpS_gr31"><stop offset="0" stop-color="#edac21" stop-opacity="0.88"></stop><stop offset="0.999" stop-color="#fdcd23"></stop><stop offset="1" stop-color="#fdcd23"></stop></linearGradient><linearGradient x1="38.20495" y1="105.82901" x2="40.58666" y2="90.99929" gradientUnits="userSpaceOnUse" id="color-32_C93WggfjREpS_gr32"><stop offset="0" stop-color="#eca821" stop-opacity="0.92"></stop><stop offset="0.999" stop-color="#fdcd23"></stop><stop offset="1" stop-color="#fdcd23"></stop></linearGradient><linearGradient x1="38.34193" y1="105.86315" x2="40.69698" y2="91.1509" gradientUnits="userSpaceOnUse" id="color-33_C93WggfjREpS_gr33"><stop offset="0" stop-color="#eaa421" stop-opacity="0.96"></stop><stop offset="0.999" stop-color="#fdcd23"></stop><stop offset="1" stop-color="#fdcd23"></stop></linearGradient><linearGradient x1="38.509" y1="105.90291" x2="40.82557" y2="91.30294" gradientUnits="userSpaceOnUse" id="color-34_C93WggfjREpS_gr34"><stop offset="0" stop-color="#e8a021"></stop><stop offset="1" stop-color="#fdcd23"></stop></linearGradient><radialGradient cx="73.39947" cy="95.68575" r="18.1245" gradientUnits="userSpaceOnUse" id="color-35_C93WggfjREpS_gr35"><stop offset="0.224" stop-color="#ffd73f" stop-opacity="0"></stop><stop offset="0.999" stop-color="#f0af13"></stop></radialGradient><radialGradient cx="51.93588" cy="95.68575" r="18.1245" gradientUnits="userSpaceOnUse" id="color-36_C93WggfjREpS_gr36"><stop offset="0.224" stop-color="#ffd73f" stop-opacity="0"></stop><stop offset="0.999" stop-color="#f0af13"></stop></radialGradient><radialGradient cx="30.71649" cy="95.95092" r="18.1245" gradientUnits="userSpaceOnUse" id="color-37_C93WggfjREpS_gr37"><stop offset="0.224" stop-color="#ffd73f" stop-opacity="0"></stop><stop offset="0.999" stop-color="#f0af13"></stop></radialGradient><linearGradient x1="71.77775" y1="122.46758" x2="71.77775" y2="99.40167" gradientUnits="userSpaceOnUse" id="color-38_C93WggfjREpS_gr38"><stop offset="0.249" stop-color="#fff7e6"></stop><stop offset="1" stop-color="#ffffff" stop-opacity="0"></stop></linearGradient><linearGradient x1="50.31358" y1="120.69383" x2="50.31358" y2="97.62792" gradientUnits="userSpaceOnUse" id="color-39_C93WggfjREpS_gr39"><stop offset="0.249" stop-color="#fff7e6"></stop><stop offset="1" stop-color="#ffffff" stop-opacity="0"></stop></linearGradient><linearGradient x1="29.09308" y1="124.08725" x2="29.09308" y2="101.02133" gradientUnits="userSpaceOnUse" id="color-40_C93WggfjREpS_gr40"><stop offset="0.249" stop-color="#fff7e6"></stop><stop offset="1" stop-color="#ffffff" stop-opacity="0"></stop></linearGradient></defs><g fill="none" fill-rule="nonzero" stroke="none" stroke-width="1" stroke-linecap="butt" stroke-linejoin="miter" stroke-miterlimit="10" stroke-dasharray="" stroke-dashoffset="0" font-family="none" font-weight="none" font-size="none" text-anchor="none" style="mix-blend-mode: normal"><path d="M0,172v-172h172v172z" fill="none"></path><g><path d="M96.49917,7.85108v11.20867c0,6.57183 2.78783,12.78892 7.57158,17.29317c2.20017,2.07117 4.23192,4.43258 6.02358,7.052c0.35833,0.52317 0.63425,1.075 0.9675,1.60892l6.85492,9.77892l0.05017,-0.07167l8.56775,12.31592l1.00692,0.946c3.61917,3.39342 8.03742,5.84083 12.86417,7.138l10.52783,2.8165c2.064,0.54108 3.46508,2.39725 3.42208,4.48275c-0.99258,13.36583 -24.73575,16.039 -48.418,5.23883v0.043c-1.32583,-0.57692 -2.193,0.17917 -2.42233,2.881c0,0.01792 -0.00358,0.03942 -0.00358,0.05733c-0.086,2.89175 -1.92783,63.93383 -1.94217,64.51433c0.10033,3.36833 -0.62708,6.37475 -1.92425,8.75767c-1.47275,2.70542 -3.58692,4.21758 -5.94117,4.257c-2.35783,0.03942 -4.52217,-1.40108 -6.08808,-4.05633c-1.376,-2.33633 -2.16433,-5.418 -2.21808,-8.62508l-2.56925,-50.36733c-0.03225,0 -0.06092,0 -0.12542,0c-0.9675,4.94142 -5.29975,8.67525 -10.52425,8.67525c-5.93758,0 -10.75,-4.81242 -10.75,-10.75c0,5.93758 -4.81242,10.75 -10.75,10.75c-5.21375,0 -9.53525,-3.71592 -10.51708,-8.63942c-0.8815,5.04892 -5.26033,8.89742 -10.56367,8.89742c-5.93758,0 -11.77842,-5.15283 -11.77842,-11.09042c0,-0.01075 -1.15383,-50.2455 2.67675,-59.85958c1.34017,-3.36475 3.68367,-6.3425 6.58258,-8.80783c5.32483,-4.54725 8.50325,-11.11908 8.50325,-18.12808v-8.31692c0,-2.49758 13.63817,-4.51858 30.45833,-4.51858c16.82017,0 30.45833,2.021 30.45833,4.51858z" fill="url(#color-1_C93WggfjREpS_gr1)"></path><g opacity="0.62"><path d="M61.01342,103.5225l-4.57233,-10.707c0.05017,-2.78425 2.35067,-5.00233 5.13492,-4.94858c2.78425,0.05017 5.00233,2.35067 4.94858,5.13492c-0.00717,0.39775 -0.06808,0.80625 -0.16125,1.17533l-4.31792,9.48867c-0.07167,0.2795 -0.35833,0.44792 -0.63783,0.37625c-0.24367,-0.0645 -0.40133,-0.28308 -0.39417,-0.51958z" fill="url(#color-2_C93WggfjREpS_gr2)" opacity="0.091"></path><path d="M61.04925,103.55475l-4.20683,-10.98292c0.05375,-2.58 2.18942,-4.62967 4.76942,-4.57233c2.58,0.05375 4.62967,2.18942 4.57233,4.76942c-0.00717,0.35833 -0.06092,0.731 -0.14692,1.06425l-4.03483,9.85417c-0.06808,0.26158 -0.33325,0.41567 -0.59125,0.35117c-0.21858,-0.06092 -0.3655,-0.26158 -0.36192,-0.48375z" fill="url(#color-3_C93WggfjREpS_gr3)" opacity="0.182"></path><path d="M61.08508,103.59058l-3.84133,-11.26242c0.05733,-2.37575 2.02817,-4.25342 4.40392,-4.19967c2.37575,0.05733 4.24625,2.02817 4.19967,4.40392c-0.00717,0.3225 -0.05375,0.65575 -0.129,0.95317l-3.75175,10.21967c-0.06092,0.24008 -0.30458,0.38342 -0.54467,0.3225c-0.20425,-0.04658 -0.34042,-0.23292 -0.33683,-0.43717z" fill="url(#color-4_C93WggfjREpS_gr4)" opacity="0.273"></path><path d="M61.1245,103.62283l-3.47225,-11.53833c0.06092,-2.1715 1.86692,-3.88075 4.03842,-3.82342c2.1715,0.06092 3.87358,1.86692 3.82342,4.03842c-0.00717,0.28308 -0.05017,0.5805 -0.11467,0.84567l-3.46508,10.58517c-0.05375,0.21858 -0.27592,0.35117 -0.4945,0.29742c-0.19708,-0.043 -0.3225,-0.215 -0.31533,-0.40492z" fill="url(#color-5_C93WggfjREpS_gr5)" opacity="0.364"></path><path d="M61.16033,103.65867l-3.11033,-11.81425c0.0645,-1.96725 1.70925,-3.50808 3.67292,-3.44717c1.96725,0.0645 3.49733,1.70567 3.44717,3.67292c-0.00717,0.24725 -0.043,0.50525 -0.10033,0.73458l-3.182,10.95067c-0.05017,0.19708 -0.25083,0.31892 -0.44792,0.27233c-0.172,-0.03942 -0.28667,-0.19708 -0.2795,-0.36908z" fill="url(#color-6_C93WggfjREpS_gr6)" opacity="0.455"></path><path d="M61.19617,103.6945l-2.74125,-12.09017c0.0645,-1.763 1.548,-3.13542 3.30742,-3.07092c1.763,0.0645 3.12108,1.548 3.07092,3.30742c-0.00717,0.21142 -0.03583,0.43 -0.086,0.6235l-2.89892,11.31617c-0.043,0.17917 -0.22217,0.28667 -0.40133,0.24725c-0.15408,-0.03583 -0.258,-0.17917 -0.25083,-0.33325z" fill="url(#color-7_C93WggfjREpS_gr7)" opacity="0.545"></path><path d="M61.232,103.72675l-2.37575,-12.36608c0.06808,-1.55517 1.38675,-2.76275 2.94192,-2.69467c1.55517,0.06808 2.74842,1.38675 2.69467,2.94192c-0.00717,0.172 -0.03225,0.35117 -0.07167,0.51242l-2.61225,11.68167c-0.03583,0.15767 -0.1935,0.25442 -0.35117,0.21858c-0.13617,-0.02508 -0.22933,-0.15408 -0.22575,-0.29383z" fill="url(#color-8_C93WggfjREpS_gr8)" opacity="0.636"></path><path d="M61.27142,103.76258l-2.01025,-12.642c0.07167,-1.35092 1.2255,-2.39008 2.57642,-2.31842c1.35092,0.07167 2.37217,1.2255 2.31842,2.57642c-0.00717,0.13617 -0.02508,0.27592 -0.05375,0.40492l-2.32917,12.04717c-0.03225,0.13617 -0.16842,0.22575 -0.30458,0.1935c-0.12183,-0.02867 -0.20425,-0.13975 -0.19708,-0.26158z" fill="url(#color-9_C93WggfjREpS_gr9)" opacity="0.727"></path><path d="M61.30725,103.79483l-1.64117,-12.91792c0.07525,-1.14667 1.06425,-2.01742 2.21092,-1.94217c1.14667,0.07525 1.9995,1.06425 1.94217,2.21092c-0.00358,0.09675 -0.01792,0.20067 -0.03942,0.29383l-2.0425,12.41267c-0.02508,0.11825 -0.13975,0.1935 -0.258,0.16842c-0.1075,-0.0215 -0.17917,-0.11825 -0.172,-0.22575z" fill="url(#color-10_C93WggfjREpS_gr10)" opacity="0.818"></path><path d="M61.34308,103.83067l-1.27567,-13.19383c0.07883,-0.94242 0.903,-1.64475 1.849,-1.56592c0.94242,0.07883 1.62683,0.903 1.56592,1.84542c-0.00358,0.06092 -0.01075,0.12542 -0.02508,0.18275l-1.75942,12.77817c-0.01792,0.09675 -0.11108,0.16125 -0.20783,0.13975c-0.09317,-0.01433 -0.15408,-0.09675 -0.14692,-0.18633z" fill="url(#color-11_C93WggfjREpS_gr11)" opacity="0.909"></path><path d="M61.37892,103.8665l-0.91017,-13.46975c0.07883,-0.73817 0.74533,-1.27208 1.4835,-1.18967c0.73817,0.07883 1.27208,0.74533 1.18967,1.4835c-0.00358,0.02508 -0.00717,0.05017 -0.01075,0.07525l-1.47633,13.14367c-0.01433,0.07525 -0.086,0.129 -0.16125,0.11467c-0.07167,-0.01792 -0.12183,-0.086 -0.11467,-0.15767z" fill="url(#color-12_C93WggfjREpS_gr12)"></path></g><g opacity="0.58"><path d="M82.22675,104.62617l-4.57233,-10.707c0.05017,-2.78425 2.35067,-5.00233 5.13492,-4.94858c2.78425,0.05017 5.00233,2.35067 4.94858,5.13492c-0.00717,0.39775 -0.06808,0.80625 -0.16125,1.17533l-4.31792,9.48867c-0.07167,0.2795 -0.35833,0.44792 -0.63783,0.37625c-0.24008,-0.0645 -0.39775,-0.28308 -0.39417,-0.51958z" fill="url(#color-13_C93WggfjREpS_gr13)" opacity="0.091"></path><path d="M82.26258,104.662l-4.20683,-10.98292c0.05375,-2.58 2.18942,-4.62967 4.76942,-4.57233c2.58,0.05375 4.62967,2.18942 4.57233,4.76942c-0.00717,0.35833 -0.06092,0.731 -0.14692,1.06425l-4.03483,9.85417c-0.06808,0.26158 -0.33325,0.41567 -0.59125,0.35117c-0.21858,-0.06092 -0.3655,-0.26517 -0.36192,-0.48375z" fill="url(#color-14_C93WggfjREpS_gr14)" opacity="0.182"></path><path d="M82.29842,104.69425l-3.84133,-11.26242c0.05733,-2.37575 2.02817,-4.25342 4.40392,-4.19967c2.37575,0.05733 4.24625,2.02817 4.19967,4.40392c-0.00717,0.3225 -0.05375,0.65575 -0.129,0.95317l-3.75175,10.21967c-0.06092,0.24008 -0.30458,0.38342 -0.54467,0.3225c-0.20425,-0.043 -0.34042,-0.23292 -0.33683,-0.43717z" fill="url(#color-15_C93WggfjREpS_gr15)" opacity="0.273"></path><path d="M82.33783,104.73008l-3.47225,-11.53833c0.06092,-2.1715 1.86692,-3.88075 4.03842,-3.82342c2.1715,0.06092 3.87358,1.86692 3.82342,4.03842c-0.00717,0.28308 -0.05017,0.5805 -0.11467,0.84567l-3.46508,10.58517c-0.05375,0.21858 -0.27592,0.35117 -0.4945,0.29742c-0.19708,-0.043 -0.3225,-0.21858 -0.31533,-0.40492z" fill="url(#color-16_C93WggfjREpS_gr16)" opacity="0.364"></path><path d="M82.37367,104.76233l-3.10675,-11.81425c0.0645,-1.96725 1.70925,-3.50808 3.67292,-3.44717c1.96725,0.0645 3.49733,1.70567 3.44717,3.67292c-0.00717,0.24725 -0.043,0.50525 -0.10033,0.73458l-3.182,10.95067c-0.05017,0.19708 -0.25083,0.31892 -0.44792,0.27233c-0.17558,-0.03942 -0.29025,-0.19708 -0.28308,-0.36908z" fill="url(#color-17_C93WggfjREpS_gr17)" opacity="0.455"></path><path d="M82.4095,104.79817l-2.74125,-12.09017c0.0645,-1.763 1.548,-3.13542 3.30742,-3.07092c1.763,0.0645 3.12108,1.548 3.07092,3.30742c-0.00717,0.21142 -0.03583,0.43 -0.086,0.6235l-2.89892,11.31617c-0.043,0.17917 -0.22217,0.28667 -0.40133,0.24725c-0.1505,-0.03583 -0.25442,-0.17917 -0.25083,-0.33325z" fill="url(#color-18_C93WggfjREpS_gr18)" opacity="0.545"></path><path d="M82.44892,104.834l-2.37575,-12.36608c0.06808,-1.55517 1.38675,-2.76275 2.94192,-2.69467c1.55517,0.06808 2.74842,1.38675 2.69467,2.94192c-0.00717,0.172 -0.03225,0.35117 -0.07167,0.51242l-2.61225,11.68167c-0.03583,0.15767 -0.1935,0.25442 -0.35117,0.21858c-0.13975,-0.02867 -0.23292,-0.15767 -0.22575,-0.29383z" fill="url(#color-19_C93WggfjREpS_gr19)" opacity="0.636"></path><path d="M82.48475,104.86625l-2.01025,-12.642c0.07167,-1.35092 1.2255,-2.39008 2.57642,-2.31842c1.35092,0.07167 2.37217,1.2255 2.31842,2.57642c-0.00717,0.13617 -0.02508,0.27592 -0.05375,0.40492l-2.32917,12.04717c-0.03225,0.13617 -0.16842,0.22575 -0.30458,0.1935c-0.12183,-0.02508 -0.20425,-0.13975 -0.19708,-0.26158z" fill="url(#color-20_C93WggfjREpS_gr20)" opacity="0.727"></path><path d="M82.52058,104.90208l-1.64117,-12.91792c0.07525,-1.14667 1.06425,-2.01742 2.21092,-1.94217c1.14667,0.07525 1.9995,1.06425 1.94217,2.21092c-0.00358,0.09675 -0.01792,0.20067 -0.03942,0.29383l-2.0425,12.41267c-0.02508,0.11825 -0.13975,0.1935 -0.258,0.16842c-0.1075,-0.0215 -0.17917,-0.12183 -0.172,-0.22575z" fill="url(#color-21_C93WggfjREpS_gr21)" opacity="0.818"></path><path d="M82.55642,104.93792l-1.27567,-13.19383c0.07883,-0.94242 0.903,-1.64475 1.849,-1.56592c0.94242,0.07883 1.62683,0.903 1.56592,1.84542c-0.00358,0.06092 -0.01075,0.12542 -0.02508,0.18275l-1.75942,12.77817c-0.01792,0.09675 -0.11108,0.16125 -0.20783,0.13975c-0.09317,-0.01433 -0.15408,-0.09675 -0.14692,-0.18633z" fill="url(#color-22_C93WggfjREpS_gr22)" opacity="0.909"></path><path d="M82.59583,104.97017l-0.91017,-13.46975c0.07883,-0.73817 0.74533,-1.27208 1.4835,-1.18967c0.73817,0.07883 1.27208,0.74533 1.18967,1.4835c-0.00358,0.02508 -0.00717,0.05017 -0.01075,0.07525l-1.47633,13.14367c-0.01433,0.07525 -0.086,0.129 -0.16125,0.11467c-0.07167,-0.01792 -0.12542,-0.08242 -0.11467,-0.15767z" fill="url(#color-23_C93WggfjREpS_gr23)"></path></g><g opacity="0.82"><path d="M39.7965,104.72292l-4.57233,-10.71058c0.05017,-2.78425 2.35067,-5.00233 5.13492,-4.94858c2.78425,0.05017 5.00233,2.35067 4.94858,5.13492c-0.00717,0.39775 -0.06808,0.80625 -0.16125,1.17533l-4.31792,9.48867c-0.07167,0.2795 -0.35833,0.44792 -0.63783,0.37625c-0.24008,-0.06092 -0.39775,-0.2795 -0.39417,-0.516z" fill="url(#color-24_C93WggfjREpS_gr24)" opacity="0.091"></path><path d="M39.83592,104.75517l-4.20683,-10.98292c0.05375,-2.58 2.18942,-4.62967 4.76942,-4.57233c2.58,0.05375 4.62967,2.18942 4.57233,4.76942c-0.00717,0.35833 -0.06092,0.731 -0.14692,1.06425l-4.03483,9.85417c-0.06808,0.26158 -0.33325,0.41567 -0.59125,0.35117c-0.22217,-0.05733 -0.36908,-0.26158 -0.36192,-0.48375z" fill="url(#color-25_C93WggfjREpS_gr25)" opacity="0.182"></path><path d="M39.87175,104.791l-3.84133,-11.26242c0.05733,-2.37575 2.02817,-4.25342 4.40392,-4.19967c2.37575,0.05733 4.24625,2.02817 4.19967,4.40392c-0.00717,0.3225 -0.05375,0.65575 -0.129,0.95317l-3.75175,10.21967c-0.06092,0.24008 -0.30458,0.38342 -0.54467,0.3225c-0.20425,-0.04658 -0.34042,-0.23292 -0.33683,-0.43717z" fill="url(#color-26_C93WggfjREpS_gr26)" opacity="0.273"></path><path d="M39.90758,104.82325l-3.47225,-11.53833c0.06092,-2.1715 1.86692,-3.88075 4.03842,-3.82342c2.1715,0.06092 3.87358,1.86692 3.82342,4.03842c-0.00717,0.28308 -0.05017,0.5805 -0.11467,0.84567l-3.46508,10.58517c-0.05375,0.21858 -0.27592,0.35117 -0.4945,0.29742c-0.1935,-0.043 -0.31892,-0.215 -0.31533,-0.40492z" fill="url(#color-27_C93WggfjREpS_gr27)" opacity="0.364"></path><path d="M39.947,104.85908l-3.10675,-11.81425c0.0645,-1.96725 1.70925,-3.50808 3.67292,-3.44717c1.96725,0.0645 3.49733,1.70567 3.44717,3.67292c-0.00717,0.24725 -0.043,0.50525 -0.10033,0.73458l-3.182,10.95067c-0.05017,0.19708 -0.25083,0.31892 -0.44792,0.27233c-0.17558,-0.03942 -0.29025,-0.19708 -0.28308,-0.36908z" fill="url(#color-28_C93WggfjREpS_gr28)" opacity="0.455"></path><path d="M39.98283,104.89492l-2.74125,-12.09017c0.0645,-1.763 1.548,-3.13542 3.30742,-3.07092c1.763,0.0645 3.12108,1.548 3.07092,3.30742c-0.00717,0.21142 -0.03583,0.43 -0.086,0.6235l-2.89892,11.31617c-0.043,0.17917 -0.22217,0.28667 -0.40133,0.24725c-0.15408,-0.03583 -0.258,-0.17917 -0.25083,-0.33325z" fill="url(#color-29_C93WggfjREpS_gr29)" opacity="0.545"></path><path d="M40.01867,104.92717l-2.37575,-12.36608c0.06808,-1.55517 1.38675,-2.76275 2.94192,-2.69467c1.55517,0.06808 2.74842,1.38675 2.69467,2.94192c-0.00717,0.172 -0.03225,0.35117 -0.07167,0.51242l-2.61225,11.68167c-0.03583,0.15767 -0.1935,0.25442 -0.35117,0.21858c-0.13975,-0.02508 -0.23292,-0.15408 -0.22575,-0.29383z" fill="url(#color-30_C93WggfjREpS_gr30)" opacity="0.636"></path><path d="M40.0545,104.963l-2.01025,-12.642c0.07167,-1.35092 1.2255,-2.39008 2.57642,-2.31842c1.35092,0.07167 2.37217,1.2255 2.31842,2.57642c-0.00717,0.13617 -0.02508,0.27592 -0.05375,0.40492l-2.32917,12.04717c-0.03225,0.13617 -0.16842,0.22575 -0.30458,0.1935c-0.11825,-0.02508 -0.20425,-0.13975 -0.19708,-0.26158z" fill="url(#color-31_C93WggfjREpS_gr31)" opacity="0.727"></path><path d="M40.09392,104.99883l-1.64117,-12.91792c0.07525,-1.14667 1.06425,-2.01742 2.21092,-1.94217c1.14667,0.07525 1.9995,1.06425 1.94217,2.21092c-0.00358,0.09675 -0.01792,0.20067 -0.03942,0.29383l-2.0425,12.41267c-0.02508,0.11825 -0.13975,0.1935 -0.258,0.16842c-0.1075,-0.02508 -0.17917,-0.12183 -0.172,-0.22575z" fill="url(#color-32_C93WggfjREpS_gr32)" opacity="0.818"></path><path d="M40.12975,105.03108l-1.27567,-13.19383c0.07883,-0.94242 0.903,-1.64475 1.849,-1.56592c0.94242,0.07883 1.62683,0.903 1.56592,1.84542c-0.00358,0.06092 -0.01075,0.12542 -0.02508,0.18275l-1.75942,12.77817c-0.01792,0.09675 -0.11108,0.16125 -0.20783,0.13975c-0.09317,-0.01433 -0.15408,-0.09675 -0.14692,-0.18633z" fill="url(#color-33_C93WggfjREpS_gr33)" opacity="0.909"></path><path d="M40.16558,105.06692l-0.91017,-13.46975c0.07883,-0.73817 0.74533,-1.27208 1.4835,-1.18967c0.73817,0.07883 1.27208,0.74533 1.18967,1.4835c-0.00358,0.02508 -0.00717,0.05017 -0.01075,0.07525l-1.47633,13.14367c-0.01433,0.07525 -0.086,0.129 -0.16125,0.11467c-0.07167,-0.01792 -0.12183,-0.086 -0.11467,-0.15767z" fill="url(#color-34_C93WggfjREpS_gr34)"></path></g><path d="M71.55917,99.27983c5.08117,-0.18275 9.18767,-3.87 10.13725,-8.65017c0.602,5.88383 1.21475,11.88233 1.21475,11.9325c0.21142,5.934 -4.42542,10.91483 -10.35942,11.12625c-5.934,0.21142 -10.91483,-4.42542 -11.12625,-10.35942c-0.00717,-0.172 -0.3225,-9.08375 -0.3225,-9.08375l-0.05375,-2.2575c1.48708,4.37167 5.6545,7.46408 10.50992,7.29208z" fill="url(#color-35_C93WggfjREpS_gr35)" opacity="0.6"></path><path d="M50.09142,99.27983c5.08117,-0.18275 9.18767,-3.87 10.13725,-8.65017c0.602,5.88383 1.21475,11.88233 1.21475,11.9325c0.21142,5.934 -4.42542,10.91483 -10.35942,11.12625c-5.934,0.21142 -10.91483,-4.42542 -11.12625,-10.35942c-0.00717,-0.172 -0.3225,-9.08375 -0.3225,-9.08375l-0.05375,-2.2575c1.48708,4.37167 5.65808,7.46408 10.50992,7.29208z" fill="url(#color-36_C93WggfjREpS_gr36)" opacity="0.6"></path><path d="M28.87808,99.545c5.08117,-0.18275 9.18767,-3.87 10.13725,-8.65017c0.602,5.88383 1.21475,11.88233 1.21475,11.9325c0.21142,5.934 -4.42542,10.91483 -10.35942,11.12625c-5.934,0.21142 -10.91483,-4.42542 -11.12625,-10.35942c-0.00717,-0.172 -0.3225,-9.08375 -0.3225,-9.08375l-0.05375,-2.2575c1.48708,4.37167 5.65808,7.46767 10.50992,7.29208z" fill="url(#color-37_C93WggfjREpS_gr37)" opacity="0.6"></path><path d="M71.35133,95.98317c5.08117,-0.18275 9.18767,-3.87 10.13725,-8.65017c0.602,5.88383 1.21475,11.88233 1.21475,11.9325c0.21142,5.934 -4.42542,10.91483 -10.35942,11.12625c-5.934,0.21142 -10.91483,-4.42542 -11.12625,-10.35942c-0.00717,-0.172 -0.3225,-9.08375 -0.3225,-9.08375l-0.05375,-2.2575c1.48708,4.37167 5.65808,7.46408 10.50992,7.29208z" fill="url(#color-38_C93WggfjREpS_gr38)" opacity="0.17"></path><path d="M49.88717,95.98317c5.08117,-0.18275 9.18767,-3.87 10.13725,-8.65017c0.602,5.88383 1.21475,11.88233 1.21475,11.9325c0.21142,5.934 -4.42542,10.91483 -10.35942,11.12625c-5.934,0.21142 -10.91483,-4.42542 -11.12625,-10.35942c-0.00717,-0.172 -0.3225,-9.08375 -0.3225,-9.08375l-0.05375,-2.2575c1.48708,4.37167 5.6545,7.46408 10.50992,7.29208z" fill="url(#color-39_C93WggfjREpS_gr39)" opacity="0.17"></path><path d="M28.67025,96.24833c5.08117,-0.18275 9.18767,-3.87 10.13725,-8.65017c0.602,5.88383 1.21475,11.88233 1.21475,11.9325c0.21142,5.934 -4.42542,10.91483 -10.35942,11.12625c-5.934,0.21142 -10.91483,-4.42542 -11.12625,-10.35942c-0.00717,-0.172 -0.3225,-9.08375 -0.3225,-9.08375l-0.05375,-2.2575c1.49067,4.37167 5.65808,7.46767 10.50992,7.29208z" fill="url(#color-40_C93WggfjREpS_gr40)" opacity="0.17"></path></g><path d="" fill="none"></path><path d="" fill="none"></path><path d="" fill="none"></path><path d="" fill="none"></path></g></svg>