<svg xmlns="http://www.w3.org/2000/svg" x="0px" y="0px"
width="48" height="48"
viewBox="0 0 172 172"
style=" fill:#000000;"><defs><linearGradient x1="137.87055" y1="86.34793" x2="157.75226" y2="86.05157" gradientUnits="userSpaceOnUse" id="color-1__RolJCIjUvC-_gr1"><stop offset="0" stop-color="#ed1c24"></stop><stop offset="1" stop-color="#8e2809"></stop></linearGradient><linearGradient x1="14.0339" y1="85.92745" x2="33.69544" y2="85.84893" gradientUnits="userSpaceOnUse" id="color-2__RolJCIjUvC-_gr2"><stop offset="0" stop-color="#ed1c24"></stop><stop offset="1" stop-color="#8e2809"></stop></linearGradient><linearGradient x1="69.99683" y1="125.80725" x2="174.23958" y2="125.80725" gradientUnits="userSpaceOnUse" id="color-3__RolJCIjUvC-_gr3"><stop offset="0" stop-color="#ed1c24"></stop><stop offset="0.999" stop-color="#c1272d"></stop></linearGradient><linearGradient x1="24.31195" y1="81.75219" x2="24.89601" y2="91.08946" gradientUnits="userSpaceOnUse" id="color-4__RolJCIjUvC-_gr4"><stop offset="0" stop-color="#601808" stop-opacity="0"></stop><stop offset="0.999" stop-color="#601808"></stop></linearGradient><linearGradient x1="6.64369" y1="74.79693" x2="20.23624" y2="124.71669" gradientUnits="userSpaceOnUse" id="color-5__RolJCIjUvC-_gr5"><stop offset="0.002" stop-color="#ee222b"></stop><stop offset="1" stop-color="#eb1c24"></stop></linearGradient><linearGradient x1="6.21789" y1="74.85774" x2="19.87168" y2="124.59169" gradientUnits="userSpaceOnUse" id="color-6__RolJCIjUvC-_gr6"><stop offset="0.002" stop-color="#f12831"></stop><stop offset="1" stop-color="#eb1c24"></stop></linearGradient><linearGradient x1="5.78298" y1="74.91825" x2="19.50227" y2="124.46165" gradientUnits="userSpaceOnUse" id="color-7__RolJCIjUvC-_gr7"><stop offset="0.002" stop-color="#f42e38"></stop><stop offset="0.718" stop-color="#ee222b"></stop><stop offset="1" stop-color="#eb1c24"></stop></linearGradient><linearGradient x1="5.35503" y1="74.96451" x2="19.13003" y2="124.30996" gradientUnits="userSpaceOnUse" id="color-8__RolJCIjUvC-_gr8"><stop offset="0.002" stop-color="#f6333f"></stop><stop offset="0.563" stop-color="#f12832"></stop><stop offset="1" stop-color="#eb1c24"></stop></linearGradient><linearGradient x1="4.92751" y1="74.91002" x2="18.79086" y2="124.16575" gradientUnits="userSpaceOnUse" id="color-9__RolJCIjUvC-_gr9"><stop offset="0.002" stop-color="#f93946"></stop><stop offset="0.467" stop-color="#f42e39"></stop><stop offset="1" stop-color="#eb1c24"></stop></linearGradient><linearGradient x1="4.43252" y1="75.00512" x2="18.50115" y2="124.58854" gradientUnits="userSpaceOnUse" id="color-10__RolJCIjUvC-_gr10"><stop offset="0.002" stop-color="#fc3f4c"></stop><stop offset="0.41" stop-color="#f6333f"></stop><stop offset="1" stop-color="#eb1c24"></stop></linearGradient><linearGradient x1="3.95962" y1="74.90469" x2="18.23574" y2="124.81396" gradientUnits="userSpaceOnUse" id="color-11__RolJCIjUvC-_gr11"><stop offset="0.002" stop-color="#ff4553"></stop><stop offset="0.359" stop-color="#f93946"></stop><stop offset="1" stop-color="#eb1c24"></stop></linearGradient><linearGradient x1="56.88542" y1="110.59242" x2="177.07758" y2="110.59242" gradientUnits="userSpaceOnUse" id="color-12__RolJCIjUvC-_gr12"><stop offset="0" stop-color="#ed1c24"></stop><stop offset="0.999" stop-color="#c1272d"></stop></linearGradient><linearGradient x1="57.41933" y1="110.27708" x2="175.483" y2="110.27708" gradientUnits="userSpaceOnUse" id="color-13__RolJCIjUvC-_gr13"><stop offset="0" stop-color="#e51d22"></stop><stop offset="0.999" stop-color="#bf2629"></stop></linearGradient><linearGradient x1="57.95325" y1="109.96533" x2="173.892" y2="109.96533" gradientUnits="userSpaceOnUse" id="color-14__RolJCIjUvC-_gr14"><stop offset="0" stop-color="#dc1e1f"></stop><stop offset="0.999" stop-color="#bd2626"></stop></linearGradient><linearGradient x1="58.48358" y1="109.65358" x2="172.29742" y2="109.65358" gradientUnits="userSpaceOnUse" id="color-15__RolJCIjUvC-_gr15"><stop offset="0" stop-color="#d41f1d"></stop><stop offset="0.999" stop-color="#bb2522"></stop></linearGradient><linearGradient x1="59.0175" y1="109.33825" x2="170.70283" y2="109.33825" gradientUnits="userSpaceOnUse" id="color-16__RolJCIjUvC-_gr16"><stop offset="0" stop-color="#cc201b"></stop><stop offset="0.999" stop-color="#b9251f"></stop></linearGradient><linearGradient x1="59.55142" y1="109.02292" x2="169.11183" y2="109.02292" gradientUnits="userSpaceOnUse" id="color-17__RolJCIjUvC-_gr17"><stop offset="0" stop-color="#c42119"></stop><stop offset="0.999" stop-color="#b7241b"></stop></linearGradient><linearGradient x1="60.08533" y1="108.70042" x2="167.51725" y2="108.70042" gradientUnits="userSpaceOnUse" id="color-18__RolJCIjUvC-_gr18"><stop offset="0" stop-color="#bb2216"></stop><stop offset="0.999" stop-color="#b52418"></stop></linearGradient><linearGradient x1="147.71472" y1="81.94864" x2="147.14198" y2="90.86086" gradientUnits="userSpaceOnUse" id="color-19__RolJCIjUvC-_gr19"><stop offset="0" stop-color="#601808" stop-opacity="0"></stop><stop offset="0.999" stop-color="#601808"></stop></linearGradient><linearGradient x1="131.73815" y1="72.18413" x2="145.85763" y2="124.04134" gradientUnits="userSpaceOnUse" id="color-20__RolJCIjUvC-_gr20"><stop offset="0.002" stop-color="#d22930"></stop><stop offset="1" stop-color="#cc242a"></stop></linearGradient><linearGradient x1="131.40071" y1="73.02536" x2="145.56783" y2="124.63431" gradientUnits="userSpaceOnUse" id="color-21__RolJCIjUvC-_gr21"><stop offset="0.002" stop-color="#da2d36"></stop><stop offset="0.96" stop-color="#cd242b"></stop><stop offset="1" stop-color="#cc242a"></stop></linearGradient><linearGradient x1="131.06225" y1="72.88804" x2="145.28407" y2="124.24147" gradientUnits="userSpaceOnUse" id="color-22__RolJCIjUvC-_gr22"><stop offset="0.002" stop-color="#e1323c"></stop><stop offset="0.718" stop-color="#d42930"></stop><stop offset="1" stop-color="#cd242a"></stop></linearGradient><linearGradient x1="130.73384" y1="72.99961" x2="144.99668" y2="124.08964" gradientUnits="userSpaceOnUse" id="color-23__RolJCIjUvC-_gr23"><stop offset="0.002" stop-color="#e93741"></stop><stop offset="0.563" stop-color="#dc2d36"></stop><stop offset="1" stop-color="#ce232a"></stop></linearGradient><linearGradient x1="130.39138" y1="73.05034" x2="144.69419" y2="123.87459" gradientUnits="userSpaceOnUse" id="color-24__RolJCIjUvC-_gr24"><stop offset="0.002" stop-color="#f03c47"></stop><stop offset="0.479" stop-color="#e3323b"></stop><stop offset="1" stop-color="#cf232a"></stop></linearGradient><linearGradient x1="130.05508" y1="73.36278" x2="144.39769" y2="123.92104" gradientUnits="userSpaceOnUse" id="color-25__RolJCIjUvC-_gr25"><stop offset="0.002" stop-color="#f8404d"></stop><stop offset="0.402" stop-color="#eb3742"></stop><stop offset="1" stop-color="#cf232a"></stop></linearGradient><linearGradient x1="129.71203" y1="73.47493" x2="144.09767" y2="123.75886" gradientUnits="userSpaceOnUse" id="color-26__RolJCIjUvC-_gr26"><stop offset="0.002" stop-color="#ff4553"></stop><stop offset="0.359" stop-color="#f23b47"></stop><stop offset="1" stop-color="#d0232a"></stop></linearGradient><linearGradient x1="28.51975" y1="115.6055" x2="32.94158" y2="115.11817" gradientUnits="userSpaceOnUse" id="color-27__RolJCIjUvC-_gr27"><stop offset="0" stop-color="#ed1c24"></stop><stop offset="0.999" stop-color="#c1272d"></stop></linearGradient><linearGradient x1="149.93624" y1="121.63985" x2="166.03619" y2="121.2816" gradientUnits="userSpaceOnUse" id="color-28__RolJCIjUvC-_gr28"><stop offset="0" stop-color="#601808" stop-opacity="0"></stop><stop offset="0.999" stop-color="#601808"></stop></linearGradient><radialGradient cx="86.50883" cy="164.01107" r="29.18625" gradientUnits="userSpaceOnUse" id="color-29__RolJCIjUvC-_gr29"><stop offset="0.001" stop-color="#ff4553"></stop><stop offset="1" stop-color="#f72b3a" stop-opacity="0"></stop></radialGradient><radialGradient cx="48.49012" cy="99.34515" r="13.23261" gradientUnits="userSpaceOnUse" id="color-30__RolJCIjUvC-_gr30"><stop offset="0" stop-color="#aa8765"></stop><stop offset="0.089" stop-color="#a17c57"></stop><stop offset="0.27" stop-color="#926941"></stop><stop offset="0.385" stop-color="#8c6239"></stop><stop offset="0.516" stop-color="#875d34"></stop><stop offset="0.68" stop-color="#774e27"></stop><stop offset="0.848" stop-color="#603813"></stop></radialGradient><radialGradient cx="129.99403" cy="92.86746" r="13.2327" gradientUnits="userSpaceOnUse" id="color-31__RolJCIjUvC-_gr31"><stop offset="0" stop-color="#aa8765"></stop><stop offset="0.089" stop-color="#a17c57"></stop><stop offset="0.27" stop-color="#926941"></stop><stop offset="0.385" stop-color="#8c6239"></stop><stop offset="0.516" stop-color="#875d34"></stop><stop offset="0.68" stop-color="#774e27"></stop><stop offset="0.848" stop-color="#603813"></stop></radialGradient><radialGradient cx="122.30173" cy="70.51953" r="5.1822" gradientUnits="userSpaceOnUse" id="color-32__RolJCIjUvC-_gr32"><stop offset="0" stop-color="#ffe16e"></stop><stop offset="0.461" stop-color="#ffd226"></stop><stop offset="0.741" stop-color="#f8c21d"></stop><stop offset="0.999" stop-color="#f0af13"></stop></radialGradient><radialGradient cx="51.66707" cy="75.77277" r="5.02912" gradientUnits="userSpaceOnUse" id="color-33__RolJCIjUvC-_gr33"><stop offset="0" stop-color="#ffe16e"></stop><stop offset="0.461" stop-color="#ffd226"></stop><stop offset="0.741" stop-color="#f8c21d"></stop><stop offset="0.999" stop-color="#f0af13"></stop></radialGradient><radialGradient cx="86.6606" cy="66.7681" r="38.56321" fx="87.96804" fy="86.81963" gradientUnits="userSpaceOnUse" id="color-34__RolJCIjUvC-_gr34"><stop offset="0" stop-color="#ffe16e"></stop><stop offset="0.629" stop-color="#ffd226"></stop><stop offset="0.75" stop-color="#fdcd23"></stop><stop offset="0.899" stop-color="#f6bd1b"></stop><stop offset="0.999" stop-color="#f0af13"></stop></radialGradient><radialGradient cx="85.00827" cy="44.13667" r="29.01873" gradientUnits="userSpaceOnUse" id="color-35__RolJCIjUvC-_gr35"><stop offset="0" stop-color="#aa8765"></stop><stop offset="0.145" stop-color="#a17c57"></stop><stop offset="0.441" stop-color="#926941"></stop><stop offset="0.629" stop-color="#8c6239"></stop><stop offset="0.734" stop-color="#875d34"></stop><stop offset="0.865" stop-color="#774e27"></stop><stop offset="0.999" stop-color="#603813"></stop></radialGradient><radialGradient cx="84.65576" cy="46.08492" r="34.50833" gradientUnits="userSpaceOnUse" id="color-36__RolJCIjUvC-_gr36"><stop offset="0" stop-color="#aa8765"></stop><stop offset="0.145" stop-color="#a17c57"></stop><stop offset="0.441" stop-color="#926941"></stop><stop offset="0.629" stop-color="#8c6239"></stop><stop offset="0.734" stop-color="#875d34"></stop><stop offset="0.865" stop-color="#774e27"></stop><stop offset="0.999" stop-color="#603813"></stop></radialGradient><radialGradient cx="84.86779" cy="47.07524" r="34.10588" gradientUnits="userSpaceOnUse" id="color-37__RolJCIjUvC-_gr37"><stop offset="0" stop-color="#9f7c59"></stop><stop offset="0.081" stop-color="#9b7652"></stop><stop offset="0.416" stop-color="#8c633c"></stop><stop offset="0.629" stop-color="#865c34"></stop><stop offset="0.744" stop-color="#81572f"></stop><stop offset="0.886" stop-color="#714822"></stop><stop offset="0.999" stop-color="#603813"></stop></radialGradient><radialGradient cx="85.08132" cy="48.00428" r="33.73604" gradientUnits="userSpaceOnUse" id="color-38__RolJCIjUvC-_gr38"><stop offset="0" stop-color="#95704e"></stop><stop offset="0.021" stop-color="#946f4c"></stop><stop offset="0.392" stop-color="#855d36"></stop><stop offset="0.629" stop-color="#7f562e"></stop><stop offset="0.759" stop-color="#7a5129"></stop><stop offset="0.92" stop-color="#6a421c"></stop><stop offset="0.999" stop-color="#603813"></stop></radialGradient><radialGradient cx="85.27721" cy="48.87232" r="33.38832" gradientUnits="userSpaceOnUse" id="color-39__RolJCIjUvC-_gr39"><stop offset="0" stop-color="#8a6542"></stop><stop offset="0.346" stop-color="#7f5731"></stop><stop offset="0.629" stop-color="#795029"></stop><stop offset="0.776" stop-color="#744b24"></stop><stop offset="0.96" stop-color="#643c17"></stop><stop offset="0.999" stop-color="#603813"></stop></radialGradient><radialGradient cx="85.47325" cy="49.70278" r="33.06238" gradientUnits="userSpaceOnUse" id="color-40__RolJCIjUvC-_gr40"><stop offset="0" stop-color="#805a36"></stop><stop offset="0.285" stop-color="#79512b"></stop><stop offset="0.629" stop-color="#734a23"></stop><stop offset="0.803" stop-color="#6e451e"></stop><stop offset="0.999" stop-color="#603813"></stop></radialGradient><radialGradient cx="85.66352" cy="50.50818" r="32.75811" gradientUnits="userSpaceOnUse" id="color-41__RolJCIjUvC-_gr41"><stop offset="0" stop-color="#754f2a"></stop><stop offset="0.151" stop-color="#724b26"></stop><stop offset="0.629" stop-color="#6d441e"></stop><stop offset="0.847" stop-color="#683f19"></stop><stop offset="0.999" stop-color="#603813"></stop></radialGradient><radialGradient cx="85.85468" cy="51.29547" r="32.47178" gradientUnits="userSpaceOnUse" id="color-42__RolJCIjUvC-_gr42"><stop offset="0" stop-color="#6b431f"></stop><stop offset="0.629" stop-color="#663e18"></stop><stop offset="0.975" stop-color="#613914"></stop><stop offset="0.999" stop-color="#603813"></stop></radialGradient><radialGradient cx="87.89566" cy="82.68744" r="6.83352" gradientUnits="userSpaceOnUse" id="color-43__RolJCIjUvC-_gr43"><stop offset="0.245" stop-color="#cc9000"></stop><stop offset="0.415" stop-color="#d09504" stop-opacity="0.822"></stop><stop offset="0.627" stop-color="#dca50f" stop-opacity="0.599"></stop><stop offset="0.851" stop-color="#eebd20" stop-opacity="0.363"></stop><stop offset="1" stop-color="#fed12e" stop-opacity="0"></stop></radialGradient><radialGradient cx="87.92519" cy="82.17038" r="7.76991" gradientUnits="userSpaceOnUse" id="color-44__RolJCIjUvC-_gr44"><stop offset="0.479" stop-color="#fed53f"></stop><stop offset="0.926" stop-color="#fed53f" stop-opacity="0.141"></stop><stop offset="1" stop-color="#fed53f" stop-opacity="0"></stop></radialGradient><radialGradient cx="87.96454" cy="82.05594" r="4.20329" gradientUnits="userSpaceOnUse" id="color-45__RolJCIjUvC-_gr45"><stop offset="0.004" stop-color="#fff4c9"></stop><stop offset="1" stop-color="#fff4c9" stop-opacity="0"></stop></radialGradient><linearGradient x1="62.40255" y1="72.5946" x2="75.0321" y2="71.48922" gradientUnits="userSpaceOnUse" id="color-46__RolJCIjUvC-_gr46"><stop offset="0" stop-color="#c69c6d"></stop><stop offset="1" stop-color="#754c24"></stop></linearGradient><radialGradient cx="68.71732" cy="72.04191" r="3.19275" gradientUnits="userSpaceOnUse" id="color-47__RolJCIjUvC-_gr47"><stop offset="0" stop-color="#1c1911"></stop><stop offset="0.999" stop-color="#171714"></stop></radialGradient><linearGradient x1="98.21039" y1="69.46416" x2="110.83994" y2="68.35877" gradientUnits="userSpaceOnUse" id="color-48__RolJCIjUvC-_gr48"><stop offset="0" stop-color="#c69c6d"></stop><stop offset="1" stop-color="#754c24"></stop></linearGradient><radialGradient cx="104.52516" cy="68.91147" r="3.19275" gradientUnits="userSpaceOnUse" id="color-49__RolJCIjUvC-_gr49"><stop offset="0" stop-color="#1c1911"></stop><stop offset="0.999" stop-color="#171714"></stop></radialGradient><radialGradient cx="89.83341" cy="95.47957" r="7.10702" gradientUnits="userSpaceOnUse" id="color-50__RolJCIjUvC-_gr50"><stop offset="0.629" stop-color="#ffe16e"></stop><stop offset="0.871" stop-color="#ffe16e" stop-opacity="0"></stop></radialGradient><radialGradient cx="90.0297" cy="98.05676" r="9.79402" gradientUnits="userSpaceOnUse" id="color-51__RolJCIjUvC-_gr51"><stop offset="0.284" stop-color="#cc9000"></stop><stop offset="1" stop-color="#cc9000" stop-opacity="0"></stop></radialGradient><radialGradient cx="90.13664" cy="98.7498" r="10.49079" gradientUnits="userSpaceOnUse" id="color-52__RolJCIjUvC-_gr52"><stop offset="0" stop-color="#1c1911"></stop><stop offset="0.999" stop-color="#171714"></stop></radialGradient><radialGradient cx="141.87492" cy="47.83033" r="31.347" gradientUnits="userSpaceOnUse" id="color-53__RolJCIjUvC-_gr53"><stop offset="0.394" stop-color="#ffe16e"></stop><stop offset="0.629" stop-color="#ffd226"></stop><stop offset="0.75" stop-color="#fdcd23"></stop><stop offset="0.899" stop-color="#f6bd1b"></stop><stop offset="0.999" stop-color="#f0af13"></stop></radialGradient><radialGradient cx="30.41892" cy="47.83033" r="31.347" gradientUnits="userSpaceOnUse" id="color-54__RolJCIjUvC-_gr54"><stop offset="0.394" stop-color="#ffe16e"></stop><stop offset="0.629" stop-color="#ffd226"></stop><stop offset="0.75" stop-color="#fdcd23"></stop><stop offset="0.899" stop-color="#f6bd1b"></stop><stop offset="0.999" stop-color="#f0af13"></stop></radialGradient><radialGradient cx="141.97774" cy="54.70846" r="31.28578" gradientUnits="userSpaceOnUse" id="color-55__RolJCIjUvC-_gr55"><stop offset="0" stop-color="#ffe16e"></stop><stop offset="0.629" stop-color="#ffd226"></stop><stop offset="0.75" stop-color="#fdcd23"></stop><stop offset="0.899" stop-color="#f6bd1b"></stop><stop offset="0.999" stop-color="#f0af13"></stop></radialGradient><radialGradient cx="141.16703" cy="50.26001" r="32.30513" gradientUnits="userSpaceOnUse" id="color-56__RolJCIjUvC-_gr56"><stop offset="0" stop-color="#f5d463"></stop><stop offset="0.629" stop-color="#f5c726"></stop><stop offset="0.761" stop-color="#f3c223"></stop><stop offset="0.925" stop-color="#ecb21a"></stop><stop offset="0.999" stop-color="#e8a915"></stop></radialGradient><radialGradient cx="141.31954" cy="45.51637" r="33.66927" gradientUnits="userSpaceOnUse" id="color-57__RolJCIjUvC-_gr57"><stop offset="0" stop-color="#ebc659"></stop><stop offset="0.629" stop-color="#ebbc25"></stop><stop offset="0.776" stop-color="#e9b722"></stop><stop offset="0.96" stop-color="#e2a71a"></stop><stop offset="0.999" stop-color="#e0a318"></stop></radialGradient><radialGradient cx="142.31909" cy="40.52032" r="35.32003" gradientUnits="userSpaceOnUse" id="color-58__RolJCIjUvC-_gr58"><stop offset="0" stop-color="#e1b94e"></stop><stop offset="0.629" stop-color="#e1b125"></stop><stop offset="0.797" stop-color="#dfac22"></stop><stop offset="0.999" stop-color="#d89d1a"></stop></radialGradient><radialGradient cx="144.38071" cy="35.8417" r="37.12149" gradientUnits="userSpaceOnUse" id="color-59__RolJCIjUvC-_gr59"><stop offset="0" stop-color="#d7ac43"></stop><stop offset="0.629" stop-color="#d7a524"></stop><stop offset="0.829" stop-color="#d5a021"></stop><stop offset="0.999" stop-color="#d1961c"></stop></radialGradient><radialGradient cx="147.39851" cy="31.65244" r="38.9155" gradientUnits="userSpaceOnUse" id="color-60__RolJCIjUvC-_gr60"><stop offset="0" stop-color="#cd9f38"></stop><stop offset="0.629" stop-color="#cd9a24"></stop><stop offset="0.884" stop-color="#cb9521"></stop><stop offset="0.999" stop-color="#c9901e"></stop></radialGradient><radialGradient cx="151.01494" cy="28.32487" r="40.55376" gradientUnits="userSpaceOnUse" id="color-61__RolJCIjUvC-_gr61"><stop offset="0" stop-color="#c3912e"></stop><stop offset="0.629" stop-color="#c38f23"></stop><stop offset="0.999" stop-color="#c18a21"></stop></radialGradient><radialGradient cx="149.11174" cy="55.10139" r="13.37987" gradientUnits="userSpaceOnUse" id="color-62__RolJCIjUvC-_gr62"><stop offset="0" stop-color="#ffe16e"></stop><stop offset="0.629" stop-color="#ffd226"></stop><stop offset="0.75" stop-color="#fdcd23"></stop><stop offset="0.899" stop-color="#f6bd1b"></stop><stop offset="0.999" stop-color="#f0af13"></stop></radialGradient><radialGradient cx="148.88002" cy="52.47946" r="12.6642" gradientUnits="userSpaceOnUse" id="color-63__RolJCIjUvC-_gr63"><stop offset="0" stop-color="#fad862"></stop><stop offset="0.629" stop-color="#facb24"></stop><stop offset="0.761" stop-color="#f8c621"></stop><stop offset="0.925" stop-color="#f1b619"></stop><stop offset="0.999" stop-color="#edad14"></stop></radialGradient><radialGradient cx="149.18141" cy="49.69746" r="11.84347" gradientUnits="userSpaceOnUse" id="color-64__RolJCIjUvC-_gr64"><stop offset="0" stop-color="#f4d056"></stop><stop offset="0.629" stop-color="#f4c522"></stop><stop offset="0.776" stop-color="#f2c01f"></stop><stop offset="0.96" stop-color="#ecb017"></stop><stop offset="0.999" stop-color="#eaac15"></stop></radialGradient><radialGradient cx="150.07336" cy="46.96308" r="10.93542" gradientUnits="userSpaceOnUse" id="color-65__RolJCIjUvC-_gr65"><stop offset="0" stop-color="#efc74a"></stop><stop offset="0.629" stop-color="#efbe20"></stop><stop offset="0.797" stop-color="#edb91d"></stop><stop offset="0.999" stop-color="#e7aa16"></stop></radialGradient><radialGradient cx="151.52358" cy="44.48228" r="9.98066" gradientUnits="userSpaceOnUse" id="color-66__RolJCIjUvC-_gr66"><stop offset="0" stop-color="#eabe3d"></stop><stop offset="0.629" stop-color="#eab81f"></stop><stop offset="0.829" stop-color="#e7b31c"></stop><stop offset="0.999" stop-color="#e3a916"></stop></radialGradient><radialGradient cx="153.43141" cy="42.41111" r="9.01991" gradientUnits="userSpaceOnUse" id="color-67__RolJCIjUvC-_gr67"><stop offset="0" stop-color="#e5b531"></stop><stop offset="0.629" stop-color="#e5b11d"></stop><stop offset="0.884" stop-color="#e2ac1a"></stop><stop offset="0.999" stop-color="#e0a717"></stop></radialGradient><radialGradient cx="155.63034" cy="40.84825" r="8.1123" gradientUnits="userSpaceOnUse" id="color-68__RolJCIjUvC-_gr68"><stop offset="0" stop-color="#dfad25"></stop><stop offset="0.629" stop-color="#dfab1b"></stop><stop offset="0.999" stop-color="#dda618"></stop></radialGradient><radialGradient cx="30.3483" cy="54.71171" r="31.28578" gradientUnits="userSpaceOnUse" id="color-69__RolJCIjUvC-_gr69"><stop offset="0" stop-color="#ffe16e"></stop><stop offset="0.629" stop-color="#ffd226"></stop><stop offset="0.75" stop-color="#fdcd23"></stop><stop offset="0.899" stop-color="#f6bd1b"></stop><stop offset="0.999" stop-color="#f0af13"></stop></radialGradient><radialGradient cx="31.15807" cy="50.25334" r="32.30513" gradientUnits="userSpaceOnUse" id="color-70__RolJCIjUvC-_gr70"><stop offset="0" stop-color="#f5d463"></stop><stop offset="0.629" stop-color="#f5c726"></stop><stop offset="0.761" stop-color="#f3c223"></stop><stop offset="0.925" stop-color="#ecb21a"></stop><stop offset="0.999" stop-color="#e8a915"></stop></radialGradient><radialGradient cx="31.01219" cy="45.51989" r="33.66927" gradientUnits="userSpaceOnUse" id="color-71__RolJCIjUvC-_gr71"><stop offset="0" stop-color="#ebc659"></stop><stop offset="0.629" stop-color="#ebbc25"></stop><stop offset="0.776" stop-color="#e9b722"></stop><stop offset="0.96" stop-color="#e2a71a"></stop><stop offset="0.999" stop-color="#e0a318"></stop></radialGradient><radialGradient cx="30.0016" cy="40.5177" r="35.32003" gradientUnits="userSpaceOnUse" id="color-72__RolJCIjUvC-_gr72"><stop offset="0" stop-color="#e1b94e"></stop><stop offset="0.629" stop-color="#e1b125"></stop><stop offset="0.797" stop-color="#dfac22"></stop><stop offset="0.999" stop-color="#d89d1a"></stop></radialGradient><radialGradient cx="27.9466" cy="35.84876" r="37.12149" gradientUnits="userSpaceOnUse" id="color-73__RolJCIjUvC-_gr73"><stop offset="0" stop-color="#d7ac43"></stop><stop offset="0.629" stop-color="#d7a524"></stop><stop offset="0.829" stop-color="#d5a021"></stop><stop offset="0.999" stop-color="#d1961c"></stop></radialGradient><radialGradient cx="24.92877" cy="31.66308" r="38.9155" gradientUnits="userSpaceOnUse" id="color-74__RolJCIjUvC-_gr74"><stop offset="0" stop-color="#cd9f38"></stop><stop offset="0.629" stop-color="#cd9a24"></stop><stop offset="0.884" stop-color="#cb9521"></stop><stop offset="0.999" stop-color="#c9901e"></stop></radialGradient><radialGradient cx="21.30253" cy="28.31784" r="40.55376" gradientUnits="userSpaceOnUse" id="color-75__RolJCIjUvC-_gr75"><stop offset="0" stop-color="#c3912e"></stop><stop offset="0.629" stop-color="#c38f23"></stop><stop offset="0.999" stop-color="#c18a21"></stop></radialGradient><radialGradient cx="23.2088" cy="55.11448" r="13.37987" gradientUnits="userSpaceOnUse" id="color-76__RolJCIjUvC-_gr76"><stop offset="0" stop-color="#ffe16e"></stop><stop offset="0.629" stop-color="#ffd226"></stop><stop offset="0.75" stop-color="#fdcd23"></stop><stop offset="0.899" stop-color="#f6bd1b"></stop><stop offset="0.999" stop-color="#f0af13"></stop></radialGradient><radialGradient cx="23.4379" cy="52.4801" r="12.6642" gradientUnits="userSpaceOnUse" id="color-77__RolJCIjUvC-_gr77"><stop offset="0" stop-color="#fad862"></stop><stop offset="0.629" stop-color="#facb24"></stop><stop offset="0.761" stop-color="#f8c621"></stop><stop offset="0.925" stop-color="#f1b619"></stop><stop offset="0.999" stop-color="#edad14"></stop></radialGradient><radialGradient cx="23.13436" cy="49.6982" r="11.84347" gradientUnits="userSpaceOnUse" id="color-78__RolJCIjUvC-_gr78"><stop offset="0" stop-color="#f4d056"></stop><stop offset="0.629" stop-color="#f4c522"></stop><stop offset="0.776" stop-color="#f2c01f"></stop><stop offset="0.96" stop-color="#ecb017"></stop><stop offset="0.999" stop-color="#eaac15"></stop></radialGradient><radialGradient cx="22.23912" cy="46.97026" r="10.93542" gradientUnits="userSpaceOnUse" id="color-79__RolJCIjUvC-_gr79"><stop offset="0" stop-color="#efc74a"></stop><stop offset="0.629" stop-color="#efbe20"></stop><stop offset="0.797" stop-color="#edb91d"></stop><stop offset="0.999" stop-color="#e7aa16"></stop></radialGradient><radialGradient cx="20.78546" cy="44.48093" r="9.98066" gradientUnits="userSpaceOnUse" id="color-80__RolJCIjUvC-_gr80"><stop offset="0" stop-color="#eabe3d"></stop><stop offset="0.629" stop-color="#eab81f"></stop><stop offset="0.829" stop-color="#e7b31c"></stop><stop offset="0.999" stop-color="#e3a916"></stop></radialGradient><radialGradient cx="18.90112" cy="42.41431" r="9.01991" gradientUnits="userSpaceOnUse" id="color-81__RolJCIjUvC-_gr81"><stop offset="0" stop-color="#e5b531"></stop><stop offset="0.629" stop-color="#e5b11d"></stop><stop offset="0.884" stop-color="#e2ac1a"></stop><stop offset="0.999" stop-color="#e0a717"></stop></radialGradient><radialGradient cx="16.69864" cy="40.85868" r="8.1123" gradientUnits="userSpaceOnUse" id="color-82__RolJCIjUvC-_gr82"><stop offset="0" stop-color="#dfad25"></stop><stop offset="0.629" stop-color="#dfab1b"></stop><stop offset="0.999" stop-color="#dda618"></stop></radialGradient></defs><g fill="none" fill-rule="nonzero" stroke="none" stroke-width="1" stroke-linecap="butt" stroke-linejoin="miter" stroke-miterlimit="10" stroke-dasharray="" stroke-dashoffset="0" font-family="none" font-weight="none" font-size="none" text-anchor="none" style="mix-blend-mode: normal"><path d="M0,172v-172h172v172z" fill="none"></path><g><path d="M137.95833,89.81625l-0.1075,-5.31408c-0.26875,-4.26775 5.74767,-3.9345 7.2455,-3.94167c8.76842,-0.04658 11.99342,1.38317 12.255,3.63708l0.473,6.71158c0.08958,0.72025 -1.3975,0.76325 -2.11775,0.76325l-15.97808,-0.13617c-0.70592,0.00358 -1.71283,-1.01408 -1.77017,-1.72z" fill="url(#color-1__RolJCIjUvC-_gr1)"></path><path d="M33.70483,89.13542l0.21142,-5.10625c0.344,-4.10292 -5.91608,-3.58333 -7.37092,-3.55825c-8.4925,0.13258 -11.64583,1.5695 -11.94683,3.741l-0.58767,6.45358c-0.10033,0.69517 1.34017,0.70592 2.03892,0.69158l15.48,-0.4515c0.67725,-0.01433 2.10342,-1.09292 2.17508,-1.77017z" fill="url(#color-2__RolJCIjUvC-_gr2)"></path><path d="M162.20317,133.64042c-1.94933,-22.65025 -4.28208,-40.13333 -4.65833,-46.38983c-0.63425,1.88125 -15.82758,4.72642 -19.38942,-0.46583c0.559,14.50892 0.69158,22.87958 0.61992,29.15758l-12.7495,-14.07175c-1.419,-1.98875 -3.41492,-3.42208 -6.192,-4.24625c-9.10883,-2.69825 -23.31317,-1.849 -33.83383,-1.84542c-10.52067,-0.00358 -24.725,-0.85283 -33.83383,1.849c-3.23933,0.96033 -5.18867,3.04225 -7.04842,5.2245l-11.86442,13.0935c-0.07167,-6.278 0.0645,-14.64867 0.61992,-29.15758c-3.94167,4.0635 -18.98092,2.43667 -19.61875,0.55542c-0.37625,6.25292 -2.47967,23.64642 -4.429,46.29667c-1.43692,13.92842 3.83417,23.13042 11.02233,21.51792c0.731,-0.16483 1.42975,-0.43358 2.107,-0.78475c5.72258,-1.79525 14.75975,-8.14492 22.77925,-15.62692c1.06783,9.06225 1.161,17.70883 1.161,26.08308h78.20625c0,-8.31692 0.5805,-16.9635 1.51933,-25.78208c7.90483,7.31717 16.70908,13.46975 22.36,15.27575c0.70592,0.37625 1.43333,0.67725 2.20375,0.83133c11.3735,2.279 12.45925,-7.58592 11.01875,-21.51433z" fill="url(#color-3__RolJCIjUvC-_gr3)"></path><path d="M16.28267,83.77475c0.03583,1.376 3.71233,2.39008 8.20942,2.26825c4.49708,-0.12183 8.10908,-1.33658 8.07325,-2.71258c-0.03583,-1.376 -3.71233,-2.39008 -8.20942,-2.26825c-4.4935,0.12542 -8.10908,1.33658 -8.07325,2.71258z" fill="url(#color-4__RolJCIjUvC-_gr4)"></path><path d="M19.3715,134.375c0.03942,-10.13725 1.19325,-28.77417 2.18225,-34.88017c0.83492,-5.15283 1.849,-7.72567 2.57642,-10.24475c-6.94808,-0.26875 -9.12675,-1.40108 -9.12675,-1.40108c0,0 -4.65117,35.93008 -4.9235,46.66575z" fill="#eb1c24"></path><path d="M18.404,134.38933c0.03942,-10.13725 1.57667,-28.87808 2.51192,-34.94825c0.7955,-5.16 1.73792,-7.87258 2.60508,-10.25192c-6.52525,-0.28667 -8.62867,-1.43333 -8.62867,-1.43333c0,0 -4.59742,36.29917 -4.86975,47.03483z" fill="url(#color-5__RolJCIjUvC-_gr5)"></path><path d="M17.4365,134.40725c0.03942,-10.13725 1.9565,-28.98558 2.84158,-35.01275c0.75608,-5.16358 1.62683,-8.0195 2.63733,-10.25908c-6.09883,-0.30458 -8.13417,-1.462 -8.13417,-1.462c0,0 -4.54367,36.6575 -4.81242,47.39317z" fill="url(#color-6__RolJCIjUvC-_gr6)"></path><path d="M16.469,134.42158c0.03942,-10.13725 2.33992,-29.0895 3.17125,-35.07725c0.71308,-5.17075 1.51933,-8.16642 2.66958,-10.26625c-5.676,-0.3225 -7.63967,-1.49425 -7.63967,-1.49425c0,0 -4.48992,37.023 -4.75867,47.75867z" fill="url(#color-7__RolJCIjUvC-_gr7)"></path><path d="M15.5015,134.4395c0.03942,-10.13725 2.71975,-29.19342 3.50092,-35.14175c0.67367,-5.17792 1.40825,-8.31333 2.69825,-10.27342c-5.25317,-0.33683 -7.14158,-1.5265 -7.14158,-1.5265c0,0 -4.43258,37.38492 -4.70492,48.12058z" fill="url(#color-8__RolJCIjUvC-_gr8)"></path><path d="M14.534,134.45383c0.03942,-10.13725 3.09958,-29.29733 3.827,-35.20625c0.63425,-5.1815 1.30075,-8.46025 2.7305,-10.28058c-4.83033,-0.35475 -6.64708,-1.55875 -6.64708,-1.55875c0,0 -4.37525,37.75042 -4.644,48.48608z" fill="url(#color-9__RolJCIjUvC-_gr9)"></path><path d="M13.5665,134.47175c0.03942,-10.13725 3.483,-29.40125 4.15667,-35.27433c0.59483,-5.18867 1.18967,-8.60717 2.76275,-10.28775c-4.4075,-0.36908 -6.15258,-1.591 -6.15258,-1.591c0,0 -4.3215,38.11592 -4.59025,48.85158z" fill="url(#color-10__RolJCIjUvC-_gr10)"></path><path d="M12.599,134.48608c0.03942,-10.13725 3.86283,-29.50517 4.48633,-35.33883c0.55542,-5.19225 1.07858,-8.75408 2.79142,-10.29133c-3.98108,-0.39058 -5.6545,-1.62325 -5.6545,-1.62325c0,0 -4.26417,38.48142 -4.5365,49.2135z" fill="url(#color-11__RolJCIjUvC-_gr11)"></path><path d="M47.1065,164.83333c0.72742,-3.49017 1.46558,-7.5895 2.0855,-11.81425c0.61992,-4.22475 1.12875,-8.57492 1.3975,-12.56317c0.53392,-7.9765 0.11108,-14.50892 -2.26825,-15.71292c-2.51908,-0.97825 -5.05608,2.924 -9.06225,8.901c-2.00308,2.9885 -4.37525,6.493 -7.29567,10.16592c-2.92042,3.67292 -6.38908,7.50708 -10.58875,11.1585c3.42925,-0.73458 8.15925,-3.68725 12.72442,-7.02692c4.56517,-3.33608 8.96908,-7.05558 11.739,-9.31308c0.26158,1.15742 0.67367,4.36808 0.97108,8.95833c0.29742,4.59383 0.48375,10.56367 0.29742,17.24658z" fill="#ec1c24"></path><path d="M48.09908,125.92908c-0.26158,-0.14692 -0.58767,-0.20425 -0.87075,-0.14692c-2.08908,0.43717 -4.46125,4.02767 -7.92633,8.97267c-1.22908,1.75583 -2.6015,3.66933 -4.128,5.67242c-1.02483,1.33658 -2.11775,2.709 -3.28592,4.09217c-1.20042,1.41542 -2.47608,2.84875 -3.84492,4.26058c-2.10342,2.1715 -4.40392,4.27492 -6.87642,6.235c3.45433,-0.67725 8.22733,-3.60125 12.82475,-6.93375c4.59742,-3.3325 9.02283,-7.06992 11.77842,-9.37042c0.06092,0.11467 0.13975,0.31175 0.18275,0.56258c0.26158,1.5695 0.5805,4.49708 0.82058,8.3205c0.13258,2.17508 0.24367,4.6225 0.30458,7.24192c0.07883,3.40417 0.08958,6.93375 0.02508,9.96883c0.65575,-3.36117 1.30792,-7.2455 1.85617,-11.23375c0.54467,-4.00617 0.98183,-8.11983 1.20758,-11.92533c0.44792,-7.57875 0.03942,-13.92483 -2.06758,-15.7165z" fill="#e41d22"></path><path d="M47.8805,127.11158c-0.22217,-0.17917 -0.57333,-0.24725 -0.83133,-0.14692c-1.94217,0.74892 -4.3,4.26417 -7.697,8.89742c-1.25058,1.70925 -2.64808,3.5475 -4.18892,5.45025c-1.04633,1.29 -2.16433,2.60508 -3.34683,3.91658c-1.2255,1.36167 -2.51908,2.72333 -3.8915,4.04558c-2.17867,2.09625 -4.52575,4.05633 -6.95883,5.79067c3.47942,-0.61992 8.29542,-3.51525 12.92508,-6.84058c4.62967,-3.32533 9.07658,-7.08425 11.81783,-9.42775c0.08242,0.0645 0.20067,0.24367 0.24367,0.50167c0.27233,1.6555 0.56975,4.59025 0.79192,8.30975c0.129,2.21092 0.22933,4.66908 0.29025,7.24192c0.086,3.74458 0.09675,7.43542 0.07167,9.94017c0.58408,-3.23217 1.15383,-6.89792 1.62325,-10.64967c0.46942,-3.79117 0.8385,-7.66833 1.01767,-11.2875c0.35833,-7.19533 -0.03583,-13.36225 -1.86692,-15.74158z" fill="#dc1e1f"></path><path d="M47.65833,128.29408c-0.18633,-0.21142 -0.55542,-0.28667 -0.7955,-0.14692c-1.79525,1.06067 -4.14592,4.49708 -7.46767,8.82217c-1.27567,1.66267 -2.69825,3.42567 -4.24983,5.2245c-1.07142,1.24342 -2.21092,2.50117 -3.40417,3.741c-1.25417,1.30433 -2.56567,2.59792 -3.94167,3.827c-2.26108,2.021 -4.64758,3.83775 -7.04125,5.34633c3.5045,-0.56258 8.3635,-3.42567 13.02542,-6.74742c4.66192,-3.32175 9.13033,-7.09858 11.85725,-9.48508c0.1075,0.01433 0.26517,0.17558 0.30817,0.43717c0.2795,1.7415 0.559,4.687 0.76325,8.299c0.12542,2.24675 0.21858,4.71567 0.27592,7.24192c0.09317,4.085 0.1075,7.94067 0.11467,9.90792c0.51242,-3.10675 0.99975,-6.55392 1.39033,-10.06917c0.39417,-3.57258 0.69158,-7.21325 0.82775,-10.64967c0.27592,-6.79758 -0.10033,-12.78175 -1.66267,-15.74875z" fill="#d41f1d"></path><path d="M47.43975,129.48017c-0.14692,-0.24367 -0.54108,-0.32608 -0.75608,-0.14692c-1.64475,1.376 -3.99542,4.73 -7.23833,8.74692c-1.30075,1.6125 -2.74842,3.30025 -4.31075,5.00233c-1.10008,1.19683 -2.2575,2.39367 -3.46508,3.56542c-1.28283,1.247 -2.61225,2.46892 -3.98825,3.60842c-2.3435,1.94217 -4.773,3.61917 -7.12367,4.902c3.53317,-0.50525 8.43158,-3.33967 13.12575,-6.65425c4.69417,-3.31458 9.18408,-7.11292 11.89667,-9.54242c0.129,-0.03942 0.32608,0.11108 0.36908,0.37267c0.28667,1.8275 0.54825,4.78017 0.73458,8.28825c0.11825,2.28258 0.20783,4.76225 0.26517,7.24192c0.10033,4.429 0.11467,8.44233 0.16125,9.87925c0.44075,-2.97775 0.84208,-6.20633 1.15742,-9.48508c0.31892,-3.35758 0.54825,-6.76175 0.63783,-10.01183c0.18275,-6.41417 -0.17917,-12.21558 -1.46558,-15.76667z" fill="#cb201b"></path><path d="M47.22117,130.66267c-0.1075,-0.27233 -0.52317,-0.3655 -0.72025,-0.14692c-1.49067,1.69492 -3.8485,4.95575 -7.009,8.67167c-1.32942,1.56592 -2.80217,3.17842 -4.37525,4.78375c-1.12875,1.15025 -2.30767,2.28975 -3.52242,3.38983c-1.31508,1.18967 -2.66242,2.33633 -4.03842,3.38983c-2.42592,1.85975 -4.89483,3.40058 -7.20608,4.45767c3.55825,-0.44792 8.49967,-3.25008 13.22608,-6.56108c4.72642,-3.311 9.23783,-7.12367 11.93967,-9.59975c0.15408,-0.08958 0.387,0.043 0.43,0.31175c0.29383,1.90992 0.53392,4.87692 0.70592,8.2775c0.11467,2.31842 0.19708,4.80883 0.25083,7.24192c0.1075,4.76942 0.12183,8.944 0.20425,9.847c0.36908,-2.84875 0.688,-5.86233 0.92808,-8.901c0.24367,-3.139 0.40133,-6.30667 0.4515,-9.374c0.09317,-6.03075 -0.25083,-11.64942 -1.26492,-15.78817z" fill="#c32119"></path><path d="M46.999,131.84517c-0.06808,-0.30458 -0.50883,-0.40492 -0.68083,-0.14692c-1.33658,2.01025 -3.70517,5.17792 -6.78325,8.6c-1.35808,1.50858 -2.85592,3.04583 -4.43617,4.558c-1.15742,1.10008 -2.35783,2.18225 -3.58333,3.21425c-1.34375,1.12875 -2.71258,2.20375 -4.085,3.17125c-2.5155,1.77375 -5.01667,3.182 -7.2885,4.01333c3.58333,-0.39058 8.56775,-3.16408 13.32642,-6.46792c4.75867,-3.30383 9.29158,-7.138 11.97908,-9.65708c0.17558,-0.13975 0.4515,-0.0215 0.49092,0.24725c0.301,1.99592 0.52317,4.97008 0.67725,8.26675c0.1075,2.35783 0.18275,4.85542 0.2365,7.23833c0.11108,5.10983 0.13258,9.44925 0.25083,9.81475c0.29742,-2.71975 0.53033,-5.51475 0.69517,-8.3205c0.16842,-2.924 0.258,-5.85517 0.26158,-8.73617c0.01075,-5.633 -0.31892,-11.06533 -1.06067,-15.79533z" fill="#bb2216"></path><path d="M47.1065,164.68283c0.46225,-5.32483 0.61275,-10.58158 0.53392,-15.83475c-0.07883,-5.25317 -0.39058,-10.50633 -0.86,-15.82042c-0.02867,-0.33683 -0.49092,-0.44433 -0.64142,-0.14692c-1.72717,3.41492 -6.04867,8.41008 -11.051,12.857c-2.50117,2.22525 -5.17433,4.31075 -7.77583,5.99133c-2.6015,1.68058 -5.1385,2.95983 -7.37092,3.569c3.60842,-0.33325 8.63583,-3.07808 13.42675,-6.37475c4.79092,-3.30025 9.34892,-7.15233 12.0185,-9.71442c0.20067,-0.18992 0.51242,-0.08958 0.55183,0.18633c0.54108,3.64067 0.75608,10.04408 0.87433,15.49433c0.11825,5.45025 0.13975,9.95808 0.29383,9.79325z" fill="#b32314"></path><path d="M41.09008,107.54658l-8.0625,8.73975l-2.12492,18.03133c0.15408,5.289 10.148,-19.85525 10.18742,-26.77108z" fill="#ec1c24"></path><path d="M41.18325,107.4355l-8.15208,8.85083l-1.82033,15.88133c0.28308,4.16383 9.718,-18.46133 9.97242,-24.73217z" fill="#e41d22"></path><path d="M41.27283,107.32083l-8.24525,8.9655l-1.51575,13.73133c0.42283,3.03867 9.29517,-17.06742 9.761,-22.69683z" fill="#dc1e1f"></path><path d="M41.366,107.20617l-8.33483,9.08017l-1.21475,11.58133c0.55542,1.90992 8.87233,-15.6735 9.54958,-20.6615z" fill="#d41f1d"></path><path d="M41.45558,107.0915l-8.428,9.19483l-0.91017,9.43492c0.69517,0.78117 8.4495,-14.28317 9.33817,-18.62975z" fill="#cb201b"></path><path d="M41.54875,106.97683l-8.51758,9.3095l-0.60558,7.28492c0.82417,-0.344 8.0195,-12.88925 9.12317,-16.59442z" fill="#c32119"></path><path d="M41.63833,106.86217l-8.61075,9.42417l-0.30458,5.13492c0.9675,-1.47275 7.60025,-11.49533 8.91533,-14.55908z" fill="#bb2216"></path><path d="M41.7315,106.7475l-8.70033,9.53883v2.98492c1.0965,-2.59792 7.17025,-10.10142 8.70033,-12.52375z" fill="#b32314"></path><path d="M56.88542,100.63075c22.84017,-2.73408 48.88742,-3.698 63.90158,0.59842c0,0 -6.42133,21.05208 -31.35417,21.64692c-27.61317,0.66292 -32.54742,-22.24533 -32.54742,-22.24533z" fill="url(#color-12__RolJCIjUvC-_gr12)"></path><path d="M57.41933,100.65225c22.84017,-2.666 47.75867,-3.7625 62.77283,0.42642c0,0 -6.67575,20.65075 -30.75575,21.1775c-26.74242,0.59125 -32.01708,-21.60392 -32.01708,-21.60392z" fill="url(#color-13__RolJCIjUvC-_gr13)"></path><path d="M57.95325,100.67375c22.84017,-2.59792 46.62633,-3.82342 61.6405,0.25442c0,0 -6.93375,20.24583 -30.16092,20.71167c-25.86808,0.516 -31.47958,-20.96608 -31.47958,-20.96608z" fill="url(#color-14__RolJCIjUvC-_gr14)"></path><path d="M58.48358,100.69525c22.84017,-2.52983 45.49758,-3.88792 60.51175,0.086c0,0 -7.18817,19.8445 -29.5625,20.24225c-24.99375,0.44075 -30.94925,-20.32825 -30.94925,-20.32825z" fill="url(#color-15__RolJCIjUvC-_gr15)"></path><path d="M59.0175,100.71675c22.84017,-2.45817 44.36525,-3.94883 59.37942,-0.086c0,0 -7.44258,19.43958 -28.96408,19.77283c-24.11942,0.36908 -30.41533,-19.68683 -30.41533,-19.68683z" fill="url(#color-16__RolJCIjUvC-_gr16)"></path><path d="M59.55142,100.73825c22.84017,-2.39008 43.2365,-4.01333 58.25067,-0.25442c0,0 -7.70058,19.03825 -28.36925,19.30342c-23.24508,0.29383 -29.88142,-19.049 -29.88142,-19.049z" fill="url(#color-17__RolJCIjUvC-_gr17)"></path><path d="M60.08533,100.75975c22.84017,-2.322 42.10417,-4.07783 57.11833,-0.42642c0,0 -7.955,18.63692 -27.77083,18.834c-22.37075,0.22217 -29.3475,-18.40758 -29.3475,-18.40758z" fill="url(#color-18__RolJCIjUvC-_gr18)"></path><path d="M60.61925,100.78125c22.84017,-2.25392 40.97542,-4.13875 55.98958,-0.59842c0,0 -8.213,18.232 -27.17242,18.36458c-21.50358,0.1505 -28.81717,-17.76617 -28.81717,-17.76617z" fill="#b32314"></path><path d="M155.746,83.88225c-0.03583,1.3115 -3.70875,2.27542 -8.20583,2.15358c-4.49708,-0.12183 -8.11267,-1.28642 -8.07683,-2.59792c0.03583,-1.3115 3.70875,-2.27542 8.20583,-2.15358c4.49708,0.12183 8.11267,1.28642 8.07683,2.59792z" fill="url(#color-19__RolJCIjUvC-_gr19)"></path><g><path d="M147.25708,133.88767c0.03942,-10.13725 -0.33683,-27.69558 -0.21142,-34.41433c0.09675,-5.22092 0.26875,-7.02333 0.37625,-9.86133c-7.08067,0.22575 -9.39192,-2.84517 -9.39192,-2.84517c0,0 0.20783,36.52492 -0.06092,47.26058z" fill="#cb242a"></path><path d="M146.32183,133.902c0.03942,-10.13725 -0.2795,-27.94283 -0.12183,-34.53258c0.129,-5.22092 0.34758,-7.13083 0.68442,-9.7825c-6.63992,0.13617 -8.87592,-2.85592 -8.87592,-2.85592c0,0 0.17917,36.54283 -0.08958,47.2785z" fill="url(#color-20__RolJCIjUvC-_gr20)"></path><path d="M145.38658,133.91633c0.03942,-10.13725 -0.21858,-28.1865 -0.03225,-34.65442c0.15767,-5.21733 0.42642,-7.23833 0.99258,-9.70367c-6.19558,0.05017 -8.35633,-2.86667 -8.35633,-2.86667c0,0 0.1505,36.56075 -0.12183,47.29283z" fill="url(#color-21__RolJCIjUvC-_gr21)"></path><path d="M144.45492,133.92708c0.03942,-10.13725 -0.16125,-28.43375 0.06092,-34.77267c0.18992,-5.21733 0.50525,-7.34583 1.30075,-9.62483c-5.75483,-0.03942 -7.83675,-2.87383 -7.83675,-2.87383c0,0 0.11825,36.57508 -0.1505,47.31075z" fill="url(#color-22__RolJCIjUvC-_gr22)"></path><path d="M143.51967,133.94142c0.03942,-10.13725 -0.10392,-28.681 0.1505,-34.89092c0.22217,-5.21733 0.58408,-7.45333 1.60892,-9.54958c-5.3105,-0.12542 -7.31717,-2.88458 -7.31717,-2.88458c0,0 0.08958,36.593 -0.17917,47.32867z" fill="url(#color-23__RolJCIjUvC-_gr23)"></path><path d="M142.58442,133.95575c0.03942,-10.13725 -0.043,-28.92825 0.24367,-35.00917c0.25083,-5.21375 0.65933,-7.56083 1.9135,-9.47075c-4.86617,-0.215 -6.80117,-2.89533 -6.80117,-2.89533c0,0 0.06092,36.61092 -0.21142,47.343z" fill="url(#color-24__RolJCIjUvC-_gr24)"></path><path d="M141.64917,133.97008c0.03942,-10.13725 0.01433,-29.1755 0.33325,-35.12742c0.28308,-5.21375 0.73817,-7.66833 2.22167,-9.39192c-4.42542,-0.301 -6.28158,-2.9025 -6.28158,-2.9025c0,0 0.02867,36.62525 -0.24008,47.36092z" fill="url(#color-25__RolJCIjUvC-_gr25)"></path><path d="M140.71392,133.98442c0.03942,-10.13725 0.07167,-29.42275 0.42283,-35.24567c0.31533,-5.21375 0.817,-7.77583 2.52983,-9.31308c-3.98108,-0.39058 -5.762,-2.91325 -5.762,-2.91325c0,0 0,36.64317 -0.26875,47.37883z" fill="url(#color-26__RolJCIjUvC-_gr26)"></path></g><g><path d="M124.96875,162.5185c-3.36117,-11.72108 -6.34608,-31.35417 0,-34.9375c3.06017,-1.71642 21.15958,22.48542 26.42708,27.54867c-4.70492,-1.2685 -18.146,-10.54933 -23.98325,-14.95325c-0.64858,-0.49092 -2.37933,8.18792 -2.44383,22.34208z" fill="#d32229"></path><path d="M124.9795,162.76575c-2.90967,-11.44517 -5.332,-29.41917 0.22575,-33.91267c2.623,-1.47275 20.51458,21.42833 26.37333,26.30883c-5.12775,-1.18967 -18.39683,-10.58875 -24.19467,-15.007c-0.59483,-0.4515 -2.27183,9.35608 -2.40442,22.61083z" fill="#cc2226"></path><path d="M124.99025,163.00942c-2.45817,-11.16925 -4.31433,-27.48417 0.44792,-32.89142c2.18583,-1.2255 19.86958,20.37125 26.31958,25.07258c-5.55417,-1.11083 -18.63692,-10.63892 -24.4025,-15.05717c-0.54108,-0.41208 -2.16792,10.52783 -2.365,22.876z" fill="#c42123"></path><path d="M125.001,163.25667c-2.00667,-10.89692 -3.30025,-25.54917 0.67367,-31.86658c1.74867,-0.98183 19.22458,19.31058 26.26583,23.83633c-5.977,-1.02842 -18.88058,-10.6855 -24.61392,-15.10733c-0.49092,-0.37983 -2.064,11.68883 -2.32558,23.13758z" fill="#bd2120"></path><path d="M125.01175,163.50033c-1.55517,-10.621 -2.28617,-23.61058 0.89583,-30.84175c1.3115,-0.73458 18.57958,18.2535 26.21208,22.60008c-6.40342,-0.94958 -19.12783,-10.72492 -24.82175,-15.1575c-0.43717,-0.34042 -1.96008,12.85342 -2.28617,23.39917z" fill="#b6201e"></path><path d="M125.0225,163.744c-1.10367,-10.34508 -1.27208,-21.67558 1.12158,-29.81692c0.87433,-0.49092 17.93458,17.19642 26.16192,21.36025c-6.82625,-0.87075 -19.37867,-10.76433 -25.03317,-15.20767c-0.387,-0.301 -1.85975,14.02158 -2.25033,23.66433z" fill="#af201b"></path><path d="M125.03325,163.99125c-0.65217,-10.06917 -0.258,-19.74058 1.34375,-28.79567c0.43717,-0.24367 17.29317,16.13933 26.10817,20.124c-7.25267,-0.79192 -19.64025,-10.78942 -25.24458,-15.25783c-0.33325,-0.26158 -1.74867,15.18975 -2.20733,23.9295z" fill="#a71f18"></path><path d="M125.044,164.23492c-0.20067,-9.79325 0.75967,-17.80558 1.5695,-27.77083c0,0 16.64817,15.07867 26.05442,18.88775c-7.6755,-0.7095 -19.8875,-10.82883 -25.45242,-15.308c-0.28308,-0.22575 -1.64833,16.35433 -2.1715,24.19108z" fill="#a01f15"></path></g><g><path d="M130.28642,106.6615l7.74358,8.38142v8.51042c0.26517,12.33383 -5.59717,-13.502 -7.74358,-16.89183z" fill="#d0232a"></path><path d="M130.57308,106.9625l7.4605,8.07683v7.8905c0.00358,10.05483 -5.31767,-12.5775 -7.4605,-15.96733z" fill="#c92227"></path><path d="M130.85975,107.2635l7.17383,7.77583v7.27417c-0.25442,7.77225 -5.031,-11.66017 -7.17383,-15.05z" fill="#c22224"></path><path d="M131.14283,107.5645l6.89075,7.47483v6.65425c-0.51242,5.48967 -4.74792,-10.73925 -6.89075,-14.12908z" fill="#bb2121"></path><path d="M131.4295,107.8655l6.60408,7.17383v6.03792c-0.77042,3.20708 -4.46125,-9.82192 -6.60408,-13.21175z" fill="#b5211e"></path><path d="M131.71258,108.1665l6.31742,6.87283v5.418c-1.02125,0.9245 -4.171,-8.901 -6.31742,-12.29083z" fill="#ae201b"></path><path d="M131.99925,108.4675l6.03433,6.57183v4.79808c-1.28283,-1.3545 -3.8915,-7.98008 -6.03433,-11.36992z" fill="#a72018"></path><path d="M132.28592,108.7685l5.74767,6.27083v4.18175c-1.54083,-3.64067 -3.60483,-7.06275 -5.74767,-10.45258z" fill="#a01f15"></path></g><path d="M26.875,144.007c0,0 5.81575,-9.07658 6.15617,-27.71708c0.34042,-18.6405 0.84567,-29.498 0.84567,-29.498c0,0 -3.30742,2.12492 -7.44975,2.34708c-0.22575,4.58667 0.44792,54.868 0.44792,54.868z" fill="url(#color-27__RolJCIjUvC-_gr27)"></path><path d="M161.84483,128.97492c-2.20733,-24.71067 -3.89867,-36.59658 -4.33225,-41.59175c-1.53008,1.90633 -7.72567,2.28975 -11.68883,2.48683c0,0 1.50858,19.07767 3.08167,40.59917c0.67725,9.36325 0.07167,17.12117 -2.59075,22.32417c2.27542,1.28642 4.49708,2.31125 6.63275,2.70183c10.20533,0.72025 11.04025,-9.49225 8.89742,-26.52025z" fill="url(#color-28__RolJCIjUvC-_gr28)"></path><path d="M115.74525,164.83333c0.95675,-3.25008 1.4835,-6.708 1.4835,-10.30208c0,-18.80175 -14.15417,-34.04167 -31.61575,-34.04167c-17.46158,0 -31.61575,15.23992 -31.61575,34.04167c0,3.59408 0.52317,7.052 1.4835,10.30208z" fill="url(#color-29__RolJCIjUvC-_gr29)"></path><g><path d="M47.62967,77.57558c0,0 4.22833,11.03667 -0.48017,15.69142c-4.09575,4.04558 -0.19708,4.52217 1.17892,4.46842c1.69492,-0.06808 2.365,-0.21858 5.04175,-1.30792c-0.645,2.55492 -1.68417,3.78758 -2.76275,4.82675c-1.88125,1.81675 0.01433,2.81292 1.83467,2.41158c1.82033,-0.40133 4.39317,-1.96725 4.95933,-2.59433c0.00717,1.40467 -0.47658,2.41517 -0.903,3.21425c-0.43,0.79908 0.50883,2.20017 2.24675,1.419c1.0105,-0.45508 2.08908,-1.36167 3.41133,-3.01c0.15408,0.87075 0.989,2.41158 1.79167,2.322c2.13567,-0.24008 3.83058,-2.75917 4.46842,-3.69442c-2.82367,-3.70517 -18.78383,-24.68917 -18.78383,-24.68917z" fill="url(#color-30__RolJCIjUvC-_gr30)"></path><path d="M126.39133,71.32983c0,0 -1.935,11.66017 3.612,15.27575c4.82317,3.14258 1.0965,4.39317 -0.26158,4.61175c-1.67342,0.27233 -2.36142,0.26158 -5.203,-0.27233c1.14308,2.37217 2.408,3.3755 3.67292,4.17817c2.20733,1.40108 0.54825,2.75917 -1.31508,2.7305c-1.86333,-0.02867 -4.70133,-1.04992 -5.37858,-1.55158c0.27592,1.37958 0.94958,2.27183 1.53008,2.967c0.5805,0.69517 -0.05733,2.2575 -1.91708,1.83825c-1.07858,-0.24367 -2.31842,-0.91733 -3.94525,-2.26825c0.02508,0.88508 -0.48733,2.56208 -1.29,2.63375c-2.13925,0.18992 -4.30717,-1.935 -5.117,-2.72692c2.02458,-4.19608 13.46617,-27.94642 13.46617,-27.94642z" fill="url(#color-31__RolJCIjUvC-_gr31)"></path><path d="M120.11692,62.56142c2.32917,-0.90658 7.73283,-0.84925 8.2345,5.81217c0.49808,6.61483 -0.172,9.23067 -2.15358,12.10092c-2.22525,3.21783 -6.63633,3.526 -6.45358,1.08933c0.18275,-2.43667 0.37267,-19.00242 0.37267,-19.00242z" fill="url(#color-32__RolJCIjUvC-_gr32)"></path><path d="M52.18408,67.67483c-2.42592,-0.54825 -6.278,0.41925 -5.88742,7.12725c0.36908,6.30667 0.20425,8.95475 2.58,11.49533c2.66958,2.84875 7.052,2.49758 6.51092,0.11467c-0.54108,-2.38292 -3.2035,-18.73725 -3.2035,-18.73725z" fill="url(#color-33__RolJCIjUvC-_gr33)"></path><path d="M124.48858,62.63308c0.65217,8.63942 -0.69517,16.87392 -3.57258,24.04058c-5.60792,13.96425 -16.84525,26.45575 -30.68408,27.4985c-13.83883,1.04275 -26.82125,-9.62483 -34.45733,-22.59292c-3.92017,-6.65783 -6.48225,-14.59492 -7.13442,-23.23433c-0.14333,-1.89917 -0.22575,-3.69442 -0.25442,-5.40008c-0.15767,-9.8255 1.54442,-16.73058 4.50067,-23.22717c5.8695,-12.89283 17.04233,-19.35717 30.20392,-20.34975c13.08992,-0.98542 25.04392,3.64783 32.78392,15.40475c4.64758,7.052 7.65042,15.05 8.61433,27.86042z" fill="url(#color-34__RolJCIjUvC-_gr34)"></path><path d="M125.25542,39.63525c1.05708,-1.01408 0.63067,-3.42925 0.44433,-4.78733c-1.08575,-7.99083 -8.11983,-15.74875 -15.39758,-17.15342c-0.47658,-0.09317 -0.9675,-0.18275 -1.45842,-0.30817c0.99975,-2.60867 0.086,-4.97725 -3.64783,-4.48275c-10.52425,1.39033 -8.00875,-4.07783 -17.87008,-1.25417c-1.18608,0.25442 -2.36858,0.68442 -3.53317,1.36167c-7.9765,-3.68367 -14.72033,0.6665 -20.32825,4.44692c-3.7625,2.537 -6.79042,2.74483 -9.99392,3.15333c-4.22117,0.5375 -2.88458,4.86975 -1.10008,5.3535c-4.72642,2.623 -8.084,8.28825 -8.78633,10.41317c-0.60558,1.83467 0.52317,3.94525 2.08908,3.13542c-1.118,2.01025 -1.68417,3.311 -1.45842,6.321c0.26875,12.36967 2.4295,29.65925 9.14467,37.72175c-3.33967,-11.66733 -2.85592,-17.02083 -1.3545,-22.87242c7.29925,-28.32267 22.42092,-18.17467 23.63925,-17.415c5.2675,3.27875 13.55933,2.55492 17.88442,-0.79908c0.7525,-0.58408 14.22225,-15.16108 26.41275,11.91817c1.62325,3.60842 2.87025,14.54117 2.50475,24.39175c7.3745,-14.75975 4.17817,-34.71533 2.80933,-39.14433z" fill="url(#color-35__RolJCIjUvC-_gr35)"></path><path d="M123.238,74.90242c3.56542,-9.50658 1.55517,-20.05233 0.43,-23.6715c-4.48633,-14.43725 -15.75233,-19.49692 -21.79025,-20.59342c-4.69417,-0.85283 -8.12342,0.04658 -10.15517,2.46533c-3.52242,4.18892 -10.449,5.26392 -14.85292,0.89583c-2.87742,-2.85592 -6.51808,-1.55158 -9.632,-0.38342c-5.72975,2.15358 -17.36125,9.80042 -19.37508,23.24867c-0.87433,5.8265 -0.70233,14.23658 5.32842,26.46292c0.06092,0.07525 0.11825,0.16125 0.17917,0.23292c-3.33967,-11.66733 -2.85592,-17.02083 -1.3545,-22.87242c7.29925,-28.32267 22.42092,-18.17467 23.63925,-17.415c5.2675,3.27875 13.55933,2.55492 17.88442,-0.79908c0.7525,-0.58408 14.22225,-15.16108 26.41275,11.91817c1.62325,3.60842 3.45792,11.04025 3.09242,20.89442c0.06808,-0.11825 0.12183,-0.26158 0.1935,-0.38342z" fill="url(#color-36__RolJCIjUvC-_gr36)"></path><path d="M66.46367,34.99842c-5.27825,2.24317 -16.44033,9.43492 -18.30367,22.80792c-0.80625,5.77275 -0.53392,13.9535 5.07042,25.66025c0.05017,0.0645 0.10033,0.13258 0.14692,0.18275c-2.91683,-10.1695 -2.96342,-16.21817 -1.30433,-22.77567c2.46175,-9.73233 6.106,-15.06433 10.148,-17.83067c5.91967,-3.97392 12.05433,-0.26875 13.49125,0.72025c5.1815,3.55467 13.21533,2.7735 17.71958,-0.65933c0.25083,-0.18992 1.04633,-0.9675 2.22883,-1.85258c3.71233,-2.7735 9.933,-5.30692 16.87392,1.87408c2.43308,2.51908 4.93783,6.149 7.29208,11.31617c1.74508,3.8055 3.54033,11.10475 3.16408,20.76542c0.0645,-0.1075 0.11108,-0.23292 0.172,-0.344c3.10675,-8.4065 1.47275,-18.31442 0.258,-22.37792c-3.94167,-13.20817 -14.104,-18.28933 -19.995,-20.038c-4.97725,-1.47992 -8.53908,-0.7095 -10.78942,1.60175c-1.18608,1.21833 -2.50833,2.30767 -3.81983,2.95983c-3.32175,1.634 -8.11983,2.13208 -11.92175,-1.505c-3.36833,-3.23575 -7.16667,-1.88842 -10.43108,-0.50525z" fill="url(#color-37__RolJCIjUvC-_gr37)"></path><path d="M65.69683,36.38875c-4.8375,2.28975 -15.51942,9.06942 -17.23225,22.36358c-0.73817,5.71542 -0.3655,13.674 4.816,24.86117c0.043,0.05375 0.08242,0.10392 0.11825,0.13258c-2.494,-8.67167 -3.06375,-15.4155 -1.25417,-22.67892c2.26825,-9.09808 5.82292,-14.5555 10.20533,-17.67658c5.42158,-3.77683 11.33408,-0.63425 13.43392,0.87433c5.17075,3.71592 12.88208,3.00283 17.55475,-0.51958c0.33325,-0.25083 1.12875,-0.99617 2.22883,-1.85617c4.08858,-3.19633 9.95092,-5.34275 16.7485,1.49067c2.494,2.50833 5.074,6.07375 7.39958,11.12625c1.86333,4.00258 3.62275,11.16925 3.23217,20.63642c0.05375,-0.09675 0.09675,-0.20783 0.14692,-0.30817c2.64808,-7.31 1.38675,-16.57292 0.08958,-21.08433c-3.44,-11.96833 -12.45567,-17.14267 -18.19617,-19.48617c-5.2675,-2.15 -8.97625,-1.47633 -11.42367,0.73817c-1.40108,1.26492 -2.79142,2.52625 -4.042,3.19275c-3.06375,1.62325 -8.16283,2.93475 -12.58825,-1.18608c-3.86283,-3.612 -7.82242,-2.236 -11.23733,-0.61992z" fill="url(#color-38__RolJCIjUvC-_gr38)"></path><path d="M64.93,37.7755c-4.4075,2.30408 -14.60208,8.70392 -16.16083,21.92283c-0.67008,5.66167 -0.20067,13.3945 4.56158,24.06208c0.03583,0.043 0.06092,0.07525 0.086,0.08242c-2.07475,-7.17383 -3.1605,-14.61283 -1.20042,-22.57858c2.07833,-8.46383 5.53983,-14.04667 10.26267,-17.52608c4.92708,-3.57617 10.62458,-1.01408 13.37658,1.02842c5.1815,3.84492 12.55242,3.23575 17.38992,-0.38342c0.41567,-0.31175 1.20758,-1.02483 2.22883,-1.85975c4.45767,-3.62992 9.976,-5.38217 16.62308,1.10725c2.5585,2.49758 5.19942,6.00567 7.51067,10.93275c1.97442,4.20683 3.70158,11.23017 3.30025,20.50742c0.04658,-0.086 0.08242,-0.18275 0.12542,-0.27233c2.18942,-6.2135 1.29358,-14.82783 -0.08242,-19.79075c-2.97417,-10.71775 -10.79658,-16.04617 -16.40092,-18.93075c-5.547,-2.85592 -9.42058,-2.25392 -12.05792,-0.12542c-1.61967,1.30792 -3.07808,2.74842 -4.26058,3.42925c-2.80575,1.60892 -8.20583,3.741 -13.25475,-0.86717c-4.3645,-3.98825 -8.48892,-2.59792 -12.04717,-0.73817z" fill="url(#color-39__RolJCIjUvC-_gr39)"></path><path d="M64.15958,39.16225c-3.98825,2.29333 -13.68117,8.33842 -15.08942,21.4785c-0.602,5.60792 -0.03225,13.115 4.30358,23.25942c0.02508,0.03225 0.043,0.04658 0.05375,0.03583c-1.65192,-5.676 -3.25367,-13.80658 -1.15025,-22.48183c1.89558,-7.826 5.25675,-13.53783 10.32,-17.372c4.429,-3.37908 9.92583,-1.40467 13.31925,1.1825c5.203,3.96317 12.22275,3.47225 17.22508,-0.24367c0.50167,-0.37267 1.28283,-1.06067 2.22883,-1.86333c4.816,-4.07783 10.00467,-5.42517 16.49767,0.72383c2.62658,2.48683 5.33558,5.93042 7.62175,10.73925c2.09267,4.40392 3.784,11.29467 3.36833,20.37842c0.03583,-0.07167 0.0645,-0.15767 0.10033,-0.2365c1.73433,-5.117 1.19683,-13.08275 -0.25083,-18.49717c-2.52983,-9.46 -9.11958,-14.98192 -14.60567,-18.37533c-5.81217,-3.59767 -9.87567,-3.04225 -12.69217,-0.989c-1.84542,1.34375 -3.36475,2.967 -4.48275,3.66575c-2.55133,1.59817 -8.25242,4.54367 -13.92483,-0.54825c-4.84825,-4.3645 -9.14467,-2.98133 -12.84267,-0.85642z" fill="url(#color-40__RolJCIjUvC-_gr40)"></path><path d="M63.39275,40.549c-3.58692,2.2575 -12.76383,7.96933 -14.018,21.03775c-0.5375,5.55058 0.13258,12.83192 4.04917,22.46033c0.01792,0.0215 0.02508,0.01792 0.02508,-0.01433c-1.22908,-4.18175 -3.33967,-13.00033 -1.10008,-22.38508c1.71642,-7.18817 4.97367,-13.029 10.37733,-17.2215c3.9345,-3.17842 9.23425,-1.806 13.2655,1.33658c5.22808,4.07783 11.89667,3.71233 17.06025,-0.10392c0.58408,-0.43 1.3545,-1.0965 2.22883,-1.86692c5.16358,-4.54008 10.03692,-5.47533 16.37225,0.34042c2.69108,2.4725 5.47892,5.85158 7.73283,10.54933c2.22167,4.59742 3.86642,11.35558 3.44,20.24942c0.02508,-0.06092 0.05017,-0.13258 0.07525,-0.20067c1.27567,-4.01692 1.08575,-11.33408 -0.42283,-17.20358c-2.10342,-8.19508 -7.42108,-13.93917 -12.80683,-17.8235c-6.05225,-4.3645 -10.33433,-3.83775 -13.32642,-1.85258c-2.07117,1.376 -3.65142,3.18558 -4.70133,3.90225c-2.29333,1.58742 -8.29542,5.34633 -14.59133,-0.22933c-5.35708,-4.74075 -9.83625,-3.38267 -13.65967,-0.97467z" fill="url(#color-41__RolJCIjUvC-_gr41)"></path><path d="M62.62592,41.93575c-3.19275,2.21092 -11.84292,7.60383 -12.94658,20.59342c-0.46942,5.49683 0.301,12.55242 3.79475,21.65767c0.00717,0.01075 0.00717,-0.01075 -0.00717,-0.0645c-0.80625,-2.68392 -3.40417,-12.18692 -1.04992,-22.28833c1.55158,-6.54675 4.69058,-12.52017 10.43467,-17.06742c3.44,-2.98133 8.55342,-2.2145 13.20817,1.49067c5.25675,4.18533 11.57417,3.956 16.89183,0.03583c0.67008,-0.49092 1.42617,-1.13592 2.22883,-1.86692c5.49325,-5.02025 10.07633,-5.52908 16.24683,-0.043c2.76275,2.45458 5.61508,5.77633 7.84033,10.35583c2.3435,4.7945 3.94525,11.42008 3.50808,20.12042c0.01792,-0.05017 0.03225,-0.1075 0.05017,-0.16125c0.817,-2.92042 0.95317,-9.57825 -0.59483,-15.91c-1.69492,-6.93017 -5.70467,-12.90717 -11.01158,-17.26808c-6.26725,-5.14925 -10.79658,-4.63683 -13.96067,-2.71617c-2.30408,1.40108 -3.9345,3.40775 -4.9235,4.13875c-2.03533,1.57308 -8.33842,6.15258 -15.25783,0.09317c-5.84083,-5.12417 -10.52425,-3.81625 -14.45158,-1.10008z" fill="url(#color-42__RolJCIjUvC-_gr42)"></path><path d="M53.52067,84.33375c0,0 -8.46383,-24.77517 9.45642,-39.22317c2.94192,-2.78067 7.87617,-2.63733 13.15083,1.64475c6.01283,4.88408 12.88925,4.07783 18.95583,-1.6985c5.80142,-5.52192 10.11933,-5.58642 16.12142,-0.42642c6.00208,5.16 12.384,14.0395 11.52758,30.15733c0.65933,-3.00283 1.74508,-20.67942 -9.95092,-31.45808c-11.36992,-10.47767 -17.60133,-0.93883 -19.737,0.7955c-1.77733,1.56233 -8.385,6.95525 -15.92433,0.41208c-6.33892,-5.50042 -11.25525,-4.27492 -15.25783,-1.21475c-4.00975,3.06017 -18.69783,12.04717 -8.342,41.01125z" fill="#603813"></path><g><path d="M53.30925,83.19425c-0.5805,-9.33817 -2.07475,-20.0595 10.47767,-32.5295c2.90967,-2.74842 7.57875,-2.65883 12.78892,1.57308c5.94475,4.82675 12.87133,4.68342 18.86625,-1.02483c5.73333,-5.45742 9.87567,-6.20992 14.9855,-2.08908c6.09167,4.91275 10.9005,10.99725 12.43058,25.80358c0.65217,-2.97058 1.58383,-18.80175 -9.976,-29.455c-11.23733,-10.35583 -17.39708,-0.92808 -19.50767,0.78833c-1.75942,1.54442 -8.28467,6.87283 -15.74158,0.40492c-6.26367,-5.43592 -10.82525,-4.51858 -14.78125,-1.49425c-3.95242,3.02075 -17.6515,16.6195 -9.54242,38.02275z" fill="#f7c226"></path><path d="M53.30925,83.19425c-0.49808,-8.00517 -2.84517,-20.37125 10.44542,-33.09925c2.90967,-2.74842 7.60383,-2.666 12.81758,1.56592c5.94475,4.82675 12.87133,4.68342 18.86625,-1.02483c5.73333,-5.45742 9.89358,-6.11317 15.12167,-1.849c6.07017,4.93783 10.922,11.16567 12.30517,26.144c0.65217,-2.97058 1.58383,-18.80175 -9.976,-29.455c-11.23733,-10.35583 -17.39708,-0.92808 -19.50767,0.78833c-1.75942,1.54442 -8.28467,6.87283 -15.74158,0.40492c-6.26367,-5.43592 -10.82525,-4.51858 -14.78125,-1.49425c-3.95958,3.01717 -17.65867,16.61592 -9.54958,38.01917z" fill="#ddab22"></path><path d="M53.30925,83.19425c-0.41567,-6.66858 -3.61558,-20.683 10.41317,-33.669c2.90967,-2.74842 7.6325,-2.66958 12.84267,1.56233c5.94475,4.82675 12.87133,4.68342 18.86625,-1.02483c5.73333,-5.45742 9.9115,-6.01283 15.25783,-1.6125c6.04508,4.9665 10.94708,11.33408 12.17617,26.48083c0.65217,-2.97058 1.58383,-18.80175 -9.976,-29.455c-11.23733,-10.35583 -17.39708,-0.92808 -19.50767,0.78833c-1.75942,1.54442 -8.28467,6.87283 -15.74158,0.40492c-6.26367,-5.43592 -10.82525,-4.51858 -14.78125,-1.49425c-3.95958,3.01717 -17.65867,16.61592 -9.54958,38.01917z" fill="#c3941e"></path><path d="M53.30925,83.19425c-0.32967,-5.33558 -4.386,-20.99475 10.38092,-34.24233c2.90967,-2.74842 7.65758,-2.67675 12.86775,1.55517c5.94475,4.82675 12.87133,4.68342 18.86625,-1.02483c5.73333,-5.45742 9.92942,-5.91608 15.39042,-1.37242c6.02358,4.99158 10.97217,11.5025 12.04717,26.81767c0.65217,-2.97058 1.58383,-18.80175 -9.976,-29.455c-11.23733,-10.35583 -17.39708,-0.92808 -19.50767,0.78833c-1.75942,1.54442 -8.28467,6.87283 -15.74158,0.40492c-6.26367,-5.43592 -10.82525,-4.51858 -14.78125,-1.49425c-3.956,3.02075 -17.65508,16.6195 -9.546,38.02275z" fill="#a97d1a"></path><path d="M53.30925,83.19425c-0.24725,-4.00258 -5.15283,-21.3065 10.34867,-34.81208c2.90967,-2.74842 7.68267,-2.68033 12.89283,1.55158c5.94475,4.82675 12.87133,4.68342 18.86625,-1.02483c5.73333,-5.45742 9.94733,-5.81575 15.52658,-1.13592c6.00208,5.02025 10.99367,11.67092 11.91817,27.15808c0.65217,-2.97058 1.58383,-18.80175 -9.976,-29.455c-11.23733,-10.35583 -17.39708,-0.92808 -19.50767,0.78833c-1.75942,1.54442 -8.28467,6.87283 -15.74158,0.40492c-6.26367,-5.43592 -10.82525,-4.51858 -14.78125,-1.49425c-3.956,3.01717 -17.65508,16.61592 -9.546,38.01917z" fill="#906617"></path><path d="M53.30925,83.19425c-0.16483,-2.66958 -5.92325,-21.61825 10.31642,-35.38183c2.90967,-2.74842 7.70775,-2.6875 12.91792,1.54442c5.94475,4.82675 12.87133,4.68342 18.86625,-1.02483c5.73333,-5.45742 9.96525,-5.719 15.66275,-0.89583c5.977,5.04892 11.01875,11.83933 11.78917,27.49492c0.65217,-2.97058 1.58383,-18.80175 -9.976,-29.455c-11.23733,-10.35583 -17.39708,-0.92808 -19.50767,0.78833c-1.75942,1.54442 -8.28467,6.87283 -15.74158,0.40492c-6.26367,-5.43592 -10.82525,-4.51858 -14.78125,-1.49425c-3.956,3.01717 -17.65508,16.61592 -9.546,38.01917z" fill="#764f13"></path><path d="M53.30925,83.19425c-0.08242,-1.333 -6.69367,-21.93 10.28417,-35.95517c2.90967,-2.74842 7.73283,-2.69108 12.943,1.54083c5.94475,4.82675 12.87133,4.68342 18.86625,-1.02483c5.73333,-5.45742 9.98317,-5.62225 15.79892,-0.65933c5.9555,5.074 11.04383,12.00775 11.66017,27.83175c0.65217,-2.97058 1.58383,-18.80175 -9.976,-29.455c-11.23733,-10.35583 -17.39708,-0.92808 -19.50767,0.78833c-1.75942,1.54442 -8.28467,6.87283 -15.74158,0.40492c-6.26367,-5.43592 -10.82525,-4.51858 -14.78125,-1.49425c-3.956,3.02075 -17.65508,16.6195 -9.546,38.02275z" fill="#5c380f"></path><path d="M53.30925,83.19425c0,0 -7.46408,-22.24175 10.25192,-36.52492c2.90967,-2.74842 7.75792,-2.69825 12.96808,1.53367c5.94475,4.82675 12.87133,4.68342 18.86625,-1.02483c5.73333,-5.45742 10.00108,-5.52192 15.93508,-0.41925c5.934,5.10267 11.06892,12.17617 11.53117,28.17217c0.65217,-2.97058 1.58383,-18.80175 -9.976,-29.455c-11.23733,-10.35583 -17.39708,-0.92808 -19.50767,0.78833c-1.75942,1.54442 -8.28467,6.87283 -15.74158,0.40492c-6.26367,-5.43592 -10.82525,-4.51858 -14.78125,-1.49425c-3.956,3.01717 -17.65508,16.61592 -9.546,38.01917z" fill="#42210b"></path></g><path d="M45.3435,79.34575c0.01075,0.00358 0.0215,0.00358 0.03583,0.00717c-0.00717,-0.043 -0.01792,-0.09317 -0.02508,-0.13975c-0.00358,0.043 -0.01075,0.086 -0.01075,0.13258z" fill="#ecbe49"></path><path d="M130.14667,76.14225c0.01075,-0.00358 0.0215,-0.00717 0.03225,-0.01075c-0.01075,-0.11825 -0.02508,-0.2365 -0.03942,-0.35833c0.00358,0.129 0.00717,0.26875 0.00717,0.36908z" fill="#ecbe49"></path></g><path d="M87.99592,84.67775c-2.29333,0.172 -4.20325,-0.26875 -5.40008,-0.81342c-0.8815,-0.40133 -1.72358,-0.12183 -1.0535,1.29358c0.91017,1.91708 2.82008,4.11725 6.77967,3.81983c3.8915,-0.29383 5.46458,-2.67317 6.09525,-4.69058c0.48733,-1.548 -0.39058,-1.634 -1.10008,-1.22908c-1.37242,0.77042 -3.08883,1.45125 -5.32125,1.61967z" fill="url(#color-43__RolJCIjUvC-_gr43)"></path><path d="M96.16592,81.68208c0.14333,2.24675 -3.46508,4.30358 -8.05175,4.59383c-4.59025,0.29025 -8.42442,-1.29717 -8.56775,-3.54392c-0.14333,-2.24675 3.46508,-4.30358 8.05175,-4.59383c4.58667,-0.29025 8.428,1.29717 8.56775,3.54392z" fill="url(#color-44__RolJCIjUvC-_gr44)"></path><path d="M92.14542,81.68925c0.13258,1.52292 -1.63042,2.924 -3.94167,3.12467c-2.31125,0.20067 -4.29283,-0.87075 -4.42542,-2.39367c-0.13258,-1.52292 1.63042,-2.924 3.94167,-3.12467c2.31125,-0.20425 4.29283,0.87075 4.42542,2.39367z" fill="url(#color-45__RolJCIjUvC-_gr45)"></path><g fill="#805b2a"><path d="M112.49158,57.64867c-0.82775,-0.52317 -1.9565,-0.99258 -3.01717,-1.27925c-1.08575,-0.29742 -2.20017,-0.46225 -3.31817,-0.516c-2.23958,-0.06808 -4.472,0.301 -6.59692,1.02125c-1.12875,0.38342 -2.35067,-0.22217 -2.73408,-1.35092c-0.37983,-1.12875 0.22217,-2.35067 1.35092,-2.73408c0.09675,-0.03225 0.19708,-0.05733 0.29742,-0.07883l0.03583,-0.00717c2.64092,-0.47658 5.38933,-0.51958 8.03742,-0.03225c1.32225,0.26517 2.61225,0.65933 3.84133,1.20042c1.23983,0.56258 2.35067,1.18608 3.47225,2.16433c0.43717,0.38342 0.48375,1.04992 0.10033,1.48708c-0.34758,0.39775 -0.9245,0.46942 -1.35808,0.19708z"></path></g><g><path d="M57.86008,72.38692c0.02508,1.08575 0.24725,0.97467 0.71667,1.47992c0,0 5.29258,6.07733 19.1565,0.387c0.99975,-0.45508 1.68058,-1.21475 1.50142,-2.0425c-3.08883,-14.22225 -21.18467,-10.50992 -21.37458,0.17558z" fill="#805b2a"></path><path d="M58.00342,71.6165c-0.28667,0.80983 -0.12183,1.42258 0.17917,2.03175c1.25417,2.64808 10.26625,11.68525 20.382,0.48733c0.75967,-0.7955 0.83133,-1.44408 0.54825,-2.32917c-0.28308,-0.88508 -3.78042,-8.01233 -11.25525,-7.35658c-7.39958,0.64858 -9.331,6.05583 -9.85417,7.16667z" fill="#ffffff"></path><g><circle cx="19.177" cy="20.11" transform="scale(3.58333,3.58333)" r="1.769" fill="url(#color-46__RolJCIjUvC-_gr46)"></circle><circle cx="19.177" cy="20.11" transform="scale(3.58333,3.58333)" r="0.891" fill="url(#color-47__RolJCIjUvC-_gr47)"></circle></g></g><g><path d="M115.10383,67.37742c0.16483,1.075 -0.07525,1.00333 -0.44792,1.58025c0,0 -4.15667,6.90508 -18.79817,3.70875c-1.06067,-0.27592 -1.86692,-0.90658 -1.83108,-1.75225c0.56617,-14.53758 19.03467,-14.02517 21.07717,-3.53675z" fill="#805b2a"></path><path d="M114.82792,66.64642c0.42283,0.74892 0.3655,1.38317 0.17917,2.03175c-0.77758,2.82725 -8.084,13.29058 -19.98783,4.01692c-0.88508,-0.65217 -1.07142,-1.27925 -0.946,-2.19658c0.12542,-0.92092 2.33275,-8.54625 9.80758,-9.19842c7.396,-0.64858 10.23758,4.33942 10.94708,5.34633z" fill="#ffffff"></path><g><circle cx="29.17" cy="19.236" transform="scale(3.58333,3.58333)" r="1.769" fill="url(#color-48__RolJCIjUvC-_gr48)"></circle><circle cx="29.17" cy="19.236" transform="scale(3.58333,3.58333)" r="0.891" fill="url(#color-49__RolJCIjUvC-_gr49)"></circle></g></g><circle cx="18.284" cy="19.559" transform="scale(3.58333,3.58333)" r="0.41" fill="#ffffff"></circle><g fill="#805b2a"><path d="M57.15775,61.45417c0.90658,-1.15742 1.85617,-1.93142 2.93117,-2.69825c1.06425,-0.74175 2.20733,-1.35092 3.38983,-1.8705c2.37575,-1.00692 4.91275,-1.6125 7.46408,-1.88483l0.02508,-0.00358c1.18608,-0.12542 2.24675,0.731 2.37217,1.91708c0.12542,1.18608 -0.731,2.24675 -1.91708,2.37217c-0.1075,0.01075 -0.22575,0.01433 -0.32967,0.01075c-2.21092,-0.10392 -4.42183,0.08242 -6.5575,0.61633c-1.06067,0.28308 -2.09983,0.645 -3.08525,1.12517c-0.96033,0.46225 -1.96367,1.10725 -2.64092,1.73433l-0.1075,0.10033c-0.42642,0.39417 -1.09292,0.36908 -1.48708,-0.05733c-0.35833,-0.38342 -0.37267,-0.96392 -0.05733,-1.36167z"></path></g><g><path d="M81.0335,101.13242c0,0 2.25392,1.23983 9.33817,0.61992c6.56108,-0.57333 9.08017,-2.23242 9.08017,-2.23242c0,0 -1.892,-2.6875 -9.45283,-2.02458c-7.56083,0.66292 -8.9655,3.63708 -8.9655,3.63708z" fill="url(#color-50__RolJCIjUvC-_gr50)"></path><path d="M90.24267,100.2545c6.46792,-0.56617 8.32408,0.44433 8.32408,0.44433c0,0 -1.44767,2.79858 -7.98725,3.37192c-6.53958,0.57333 -8.45308,-1.935 -8.45308,-1.935c0,0 1.64475,-1.31508 8.11625,-1.88125z" fill="url(#color-51__RolJCIjUvC-_gr51)"></path><path d="M99.17592,99.09708c0.99975,0.44433 1.83825,-0.84925 1.02842,-1.58742c-2.34708,-2.14283 -5.84083,-4.13158 -10.53142,-3.72308c-4.69058,0.4085 -7.783,2.97775 -9.72517,5.49325c-0.6665,0.86717 0.37983,1.99592 1.29,1.38317c2.08908,-1.40467 4.99875,-2.73408 8.76842,-3.06375c3.77325,-0.32608 6.86925,0.47658 9.16975,1.49783z" fill="url(#color-52__RolJCIjUvC-_gr52)"></path></g><circle cx="28.459" cy="18.669" transform="scale(3.58333,3.58333)" r="0.41" fill="#ffffff"></circle><path d="M166.16633,32.47933c0.31892,-1.9995 -2.25033,-3.57258 -3.37908,-0.2365c-0.946,-0.97108 -2.3865,-0.70592 -3.08167,1.01767c-1.02842,2.537 -1.247,3.62275 -3.11033,7.86183c-2.84875,4.99517 -7.51425,12.16183 -7.51425,12.16183c-0.69158,0.989 -1.32942,1.935 -1.96367,2.88458c-0.01792,-1.96725 -0.172,-4.30358 -0.72383,-6.03075c-0.88508,-2.78067 -6.32458,-4.09575 -6.14183,0.22933c0.3655,8.72542 -3.29667,14.89592 -2.82008,20.58267c0.344,4.128 2.68392,6.05583 3.26083,6.29592l-0.12183,5.56133c0.1075,2.24675 14.59133,2.9455 14.2975,0.01433l0.043,-7.30642c2.03533,-2.87025 8.24525,-10.22325 10.879,-14.86008c1.5265,-2.72333 4.90917,-12.61692 4.90917,-12.61692c0.48733,-2.47608 0.95317,-5.633 1.04633,-8.4925c-0.01075,-1.8705 -0.93167,-3.5045 -2.82725,-3.72308c0.59125,-2.7305 -1.23983,-4.60817 -2.752,-3.34325z" fill="url(#color-53__RolJCIjUvC-_gr53)"></path><path d="M3.37908,35.82258c-1.89558,0.21858 -2.8165,1.85258 -2.82725,3.72308c0.09317,2.8595 0.559,6.01642 1.04633,8.4925c0,0 3.38267,9.89358 4.90917,12.61692c2.63375,4.63683 8.84367,11.98983 10.879,14.86008l0.043,7.30642c-0.29383,2.93117 14.19,2.23242 14.2975,-0.01433l-0.12183,-5.56133c0.57692,-0.24008 2.91683,-2.16792 3.26083,-6.29592c0.47658,-5.68675 -3.18558,-11.85725 -2.82008,-20.58267c0.18275,-4.32508 -5.25675,-3.01 -6.14183,-0.22933c-0.55183,1.72717 -0.70592,4.0635 -0.72383,6.03075c-0.63425,-0.94958 -1.27208,-1.89558 -1.96367,-2.88458c0,0 -4.6655,-7.16667 -7.51425,-12.16183c-1.86333,-4.23908 -2.08192,-5.32483 -3.11033,-7.86183c-0.69517,-1.72358 -2.13567,-1.98875 -3.08167,-1.01767c-1.12875,-3.33608 -3.698,-1.763 -3.37908,0.2365c-1.51217,-1.26492 -3.34325,0.61275 -2.752,3.34325z" fill="url(#color-54__RolJCIjUvC-_gr54)"></path><g><path d="M148.49333,78.26358c0,0 4.7085,-1.03917 10.51708,-6.88358c3.34683,-3.36475 9.78967,-15.33308 11.56342,-22.88317c1.77375,-7.55008 1.0535,-9.88283 1.0535,-9.88283c0,0 -0.22575,-2.51908 -2.25392,-2.63375c0.086,1.17175 0.16842,2.5155 -0.25083,4.48992c-1.58742,7.98725 -7.85825,22.0805 -19.60083,33.33217c-4.4935,4.59383 -3.956,5.26392 -1.02842,4.46125z" fill="url(#color-55__RolJCIjUvC-_gr55)"></path><path d="M148.49333,78.26358c0,0 4.62608,-0.84208 10.535,-6.86567c3.32533,-3.38267 9.77175,-15.351 11.5455,-22.90108c1.77375,-7.55008 1.0535,-9.88283 1.0535,-9.88283c0,0 -0.22217,-2.32917 -2.04967,-2.53342c0.15767,1.27208 0.22575,2.56567 -0.172,4.57592c-1.4835,7.92633 -7.57517,21.89775 -18.69067,32.723c-4.51142,4.69058 -4.73358,5.57925 -2.22167,4.88408z" fill="url(#color-56__RolJCIjUvC-_gr56)"></path><path d="M148.49333,78.26358c0,0 4.54008,-0.645 10.55292,-6.84417c3.30742,-3.40058 9.75383,-15.3725 11.53117,-22.92258c1.77733,-7.55008 1.0535,-9.88283 1.0535,-9.88283c0,0 -0.21858,-2.14283 -1.849,-2.43308c0.22933,1.37242 0.2795,2.61583 -0.08958,4.6655c-1.37958,7.86542 -7.29208,21.715 -17.77692,32.11383c-4.53292,4.78017 -5.51833,5.89458 -3.42208,5.30333z" fill="url(#color-57__RolJCIjUvC-_gr57)"></path><path d="M148.49333,78.26358c0,0 4.45767,-0.44792 10.56725,-6.82267c3.2895,-3.42208 9.7395,-15.394 11.51325,-22.94408c1.77375,-7.55008 1.0535,-9.88283 1.0535,-9.88283c0,0 -0.215,-1.95292 -1.64475,-2.32917c0.301,1.46917 0.33683,2.666 -0.01075,4.7515c-1.27567,7.80092 -7.009,21.53225 -16.86675,31.50467c-4.54367,4.86975 -6.29233,6.20633 -4.61175,5.72258z" fill="url(#color-58__RolJCIjUvC-_gr58)"></path><path d="M148.49333,78.26358c0,0 4.37167,-0.25083 10.58517,-6.80475c3.268,-3.44 9.72158,-15.41192 11.49892,-22.962c1.77733,-7.55008 1.0535,-9.88283 1.0535,-9.88283c0,0 -0.21142,-1.76658 -1.4405,-2.22883c0.37267,1.5695 0.39417,2.71258 0.06808,4.84108c-1.17175,7.74 -6.7295,21.3495 -15.95658,30.8955c-4.56158,4.95933 -7.06992,6.52167 -5.80858,6.14183z" fill="url(#color-59__RolJCIjUvC-_gr59)"></path><path d="M148.49333,78.26358c0,0 4.28567,-0.05375 10.5995,-6.78325c3.25008,-3.45792 9.70725,-15.43342 11.481,-22.9835c1.77375,-7.55008 1.0535,-9.88283 1.0535,-9.88283c0,0 -0.20783,-1.58025 -1.23625,-2.1285c0.44433,1.66983 0.44792,2.76275 0.14692,4.92708c-1.06783,7.67908 -6.44642,21.16317 -15.04283,30.28633c-4.57592,5.0525 -7.8475,6.837 -7.00183,6.56467z" fill="url(#color-60__RolJCIjUvC-_gr60)"></path><path d="M148.49333,78.26358c0,0 4.20325,0.14333 10.61742,-6.76175c3.23217,-3.47583 9.68933,-15.45492 11.46308,-23.005c1.77375,-7.55008 1.0535,-9.88283 1.0535,-9.88283c0,0 -0.20425,-1.39033 -1.03558,-2.02458c0.516,1.77017 0.50525,2.81292 0.22575,5.01667c-0.96392,7.61458 -6.16333,20.98042 -14.13267,29.67717c-4.59025,5.1385 -8.6215,7.14875 -8.1915,6.98033z" fill="url(#color-61__RolJCIjUvC-_gr61)"></path><path d="M148.49333,78.26358c0,0 4.11725,0.34042 10.63533,-6.74383c3.21425,-3.49375 9.67142,-15.47283 11.44875,-23.02292c1.77733,-7.55008 1.0535,-9.88283 1.0535,-9.88283c0,0 -0.20067,-1.204 -0.83133,-1.92425c0.58767,1.8705 0.56258,2.86308 0.30817,5.10267c-0.86,7.55367 -5.88025,20.79767 -13.21892,29.068c-4.61533,5.23525 -9.40983,7.46408 -9.3955,7.40317z" fill="#b98423"></path></g><g><path d="M165.23467,30.45117l-3.62992,10.44542l-4.08142,8.46025c-0.65933,1.20758 0.75608,2.44383 1.66625,0.73817c0.93525,-1.75942 3.77325,-8.85442 3.77325,-8.85442l3.12825,-9.77175c0,0 0.07525,-0.39775 -0.85642,-1.01767z" fill="#fbca2a"></path><path d="M165.34933,30.58375l-3.612,10.40242c0,0 -4.00258,8.39933 -4.04558,8.48175c-0.60558,1.11083 0.65933,2.18583 1.47992,0.66292c0.8385,-1.56233 3.73742,-8.70033 3.78758,-8.81858c0.05017,-0.11825 3.14617,-9.70008 3.14617,-9.70008c0.01433,-0.06808 0.0645,-0.4515 -0.75608,-1.02842z" fill="#f6c528"></path><path d="M165.46042,30.71633l-3.59767,10.35583c0,0 -3.92375,8.33483 -4.00975,8.50325c-0.54825,1.01408 0.56258,1.92425 1.29,0.58408c0.74533,-1.36883 3.70158,-8.54625 3.8055,-8.78275c0.10033,-0.2365 3.16408,-9.62842 3.16408,-9.62842c0.03583,-0.13258 0.0645,-0.50167 -0.65217,-1.032z" fill="#f2bf25"></path><path d="M165.57508,30.84892l-3.57975,10.30925c0,0 -3.84492,8.27392 -3.97033,8.52117c-0.49092,0.92092 0.46225,1.66267 1.10367,0.50525c0.64858,-1.17175 3.66933,-8.39217 3.81983,-8.74692c0.15408,-0.35833 3.182,-9.55675 3.182,-9.55675c0.04658,-0.18992 0.05375,-0.54467 -0.55542,-1.032z" fill="#edba23"></path><path d="M165.68975,30.97792l-3.56183,10.26625c0,0 -3.76608,8.213 -3.9345,8.54267c-0.43717,0.82417 0.3655,1.40108 0.91733,0.43c0.55183,-0.97467 3.6335,-8.2345 3.83775,-8.71108c0.20425,-0.47658 3.19992,-9.48508 3.19992,-9.48508c0.05733,-0.258 0.03942,-0.59483 -0.45867,-1.04275z" fill="#e8b420"></path><path d="M165.80442,31.1105l-3.54392,10.21967c0,0 -3.69083,8.15208 -3.89867,8.56417c-0.37983,0.72742 0.26517,1.1395 0.72742,0.35117c0.45508,-0.78117 3.60125,-8.08042 3.85567,-8.67525c0.25442,-0.59483 3.21425,-9.41342 3.21425,-9.41342c0.07525,-0.31892 0.03583,-0.645 -0.35475,-1.04633z" fill="#e3af1e"></path><path d="M165.91908,31.24308l-3.52958,10.17308c0,0 -3.612,8.08758 -3.86283,8.58567c-0.32608,0.63067 0.16842,0.87792 0.54108,0.27592c0.35833,-0.58408 3.56542,-7.92633 3.87,-8.63942c0.30458,-0.71308 3.23217,-9.33817 3.23217,-9.33817c0.09317,-0.387 0.02867,-0.69875 -0.25083,-1.05708z" fill="#dfa91b"></path><path d="M166.03017,31.37567l-3.51167,10.1265c0,0 -3.53317,8.02667 -3.82342,8.60717c-0.26875,0.53392 0.06808,0.61992 0.35117,0.19708c0.26158,-0.39058 3.52958,-7.77225 3.88792,-8.60358c0.35475,-0.83492 3.25008,-9.2665 3.25008,-9.2665c0.11108,-0.4515 0.0215,-0.74892 -0.15408,-1.06067z" fill="#daa419"></path></g><g><path d="M168.26258,32.43275c0.21142,1.505 -1.78092,6.91225 -3.1605,10.62458l-3.78758,8.15567c-0.56975,1.08933 1.10725,2.2575 1.87767,0.31533c0.77042,-1.94217 3.33608,-8.17358 3.33608,-8.17358l2.52267,-8.8795c0.00717,-0.87792 -0.19708,-1.53367 -0.78833,-2.0425z" fill="url(#color-62__RolJCIjUvC-_gr62)"></path><path d="M168.35575,32.63342c0.18275,1.29 -1.96367,7.29925 -3.14258,10.48125c0,0 -3.73383,8.0625 -3.78042,8.13775c-0.53033,1.00333 0.99975,2.06758 1.70567,0.3225c0.69517,-1.72358 3.34325,-8.04458 3.39342,-8.16283c0.05017,-0.11825 2.50117,-8.73258 2.50117,-8.73258c0.02508,-0.81342 -0.13258,-1.54442 -0.67725,-2.04608z" fill="url(#color-63__RolJCIjUvC-_gr63)"></path><path d="M168.44533,32.83767c0.1505,1.075 -2.14283,7.68625 -3.12467,10.33792c0,0 -3.68008,7.96933 -3.76967,8.11625c-0.4945,0.91733 0.89583,1.87767 1.53367,0.33325c0.6235,-1.50142 3.35042,-7.912 3.45075,-8.15208c0.10033,-0.2365 2.47967,-8.58208 2.47967,-8.58208c0.03942,-0.75608 -0.06808,-1.56592 -0.56975,-2.05325z" fill="url(#color-64__RolJCIjUvC-_gr64)"></path><path d="M168.5385,33.03833c0.12183,0.86 -2.322,8.07325 -3.11033,10.19458c0,0 -3.62633,7.87617 -3.7625,8.09475c-0.45508,0.83133 0.78833,1.68775 1.36525,0.344c0.54825,-1.27925 3.354,-7.783 3.50808,-8.14133c0.15408,-0.35833 2.46175,-8.43517 2.46175,-8.43517c0.05375,-0.69158 -0.00358,-1.57667 -0.46225,-2.05683z" fill="url(#color-65__RolJCIjUvC-_gr65)"></path><path d="M168.63167,33.24258c0.08958,0.645 -2.50117,8.46025 -3.09242,10.05125c0,0 -3.57258,7.783 -3.75175,8.07325c-0.41567,0.74533 0.68083,1.49783 1.19325,0.35117c0.473,-1.06067 3.36117,-7.654 3.56542,-8.13058c0.20425,-0.47658 2.44025,-8.28467 2.44025,-8.28467c0.0645,-0.63067 0.05733,-1.591 -0.35475,-2.06042z" fill="url(#color-66__RolJCIjUvC-_gr66)"></path><path d="M168.72483,33.44683c0.06092,0.43 -2.68033,8.84725 -3.0745,9.90792c0,0 -3.51883,7.68983 -3.74458,8.05175c-0.37625,0.65933 0.57333,1.30433 1.02125,0.36192c0.39775,-0.8385 3.36833,-7.525 3.62275,-8.11983c0.25442,-0.59483 2.41875,-8.13775 2.41875,-8.13775c0.07883,-0.56975 0.12183,-1.60533 -0.24367,-2.064z" fill="url(#color-67__RolJCIjUvC-_gr67)"></path><path d="M168.81442,33.6475c0.02867,0.215 -2.8595,9.23425 -3.05658,9.76458c0,0 -3.46508,7.59667 -3.73383,8.03025c-0.34042,0.57333 0.46225,1.11442 0.84925,0.36908c0.3225,-0.61992 3.37192,-7.39242 3.6765,-8.10908c0.30458,-0.71308 2.40083,-7.98725 2.40083,-7.98725c0.09675,-0.50525 0.18633,-1.61608 -0.13617,-2.06758z" fill="url(#color-68__RolJCIjUvC-_gr68)"></path><path d="M168.90758,33.85175l-3.04225,9.62125c0,0 -3.41133,7.49992 -3.72667,8.00875c-0.301,0.48733 0.35117,0.92092 0.68083,0.37983c0.24367,-0.40133 3.37908,-7.26342 3.73383,-8.09833c0.35475,-0.83492 2.37933,-7.84033 2.37933,-7.84033c0.11108,-0.44792 0.25083,-1.63042 -0.02508,-2.07117z" fill="#daa419"></path></g><g><path d="M147.11733,56.16517c0,0 -0.18992,-3.76967 -0.29383,-4.48992c-0.10392,-0.72025 -0.92092,-4.2355 -4.60817,-4.07783c1.39392,1.97442 1.3975,3.96675 1.53008,5.42875c0.16125,1.79883 -0.32967,7.22042 -0.55183,7.99442c0.95317,-1.1395 3.92375,-4.85542 3.92375,-4.85542z" fill="#fed232"></path><path d="M147.11733,56.16517c0,0 -0.18992,-3.76967 -0.29383,-4.48992c-0.10392,-0.72025 -0.86,-4.07425 -4.386,-4.04917c1.39392,1.97442 1.44408,3.8055 1.57667,5.2675c0.16125,1.79883 -0.27592,6.966 -0.50167,7.74c0.95675,-1.1395 3.60483,-4.46842 3.60483,-4.46842z" fill="#f9cb2e"></path><path d="M147.11733,56.16517c0,0 -0.18992,-3.76967 -0.29383,-4.48992c-0.10392,-0.72025 -0.80267,-3.913 -4.16383,-4.02408c1.39392,1.97442 1.49067,3.64425 1.62325,5.10625c0.16125,1.79883 -0.22575,6.71158 -0.4515,7.48558c0.95675,-1.1395 3.28592,-4.07783 3.28592,-4.07783z" fill="#f4c52b"></path><path d="M147.11733,56.16517c0,0 -0.18992,-3.76967 -0.29383,-4.48992c-0.10392,-0.72025 -0.74175,-3.75533 -3.93808,-3.99542c1.39392,1.97442 1.54083,3.48658 1.66983,4.94858c0.16125,1.79883 -0.17558,6.45717 -0.39775,7.23117c0.95317,-1.14308 2.95983,-3.69442 2.95983,-3.69442z" fill="#efbe27"></path><path d="M147.11733,56.16517c0,0 -0.18992,-3.76967 -0.29383,-4.48992c-0.10392,-0.72025 -0.68442,-3.59408 -3.71592,-3.97033c1.39392,1.97442 1.58742,3.32533 1.72,4.78733c0.16125,1.79883 -0.12542,6.20275 -0.34758,6.97675c0.95317,-1.14308 2.63733,-3.30383 2.63733,-3.30383z" fill="#e9b824"></path><path d="M147.11733,56.16517c0,0 -0.18992,-3.76967 -0.29383,-4.48992c-0.10392,-0.72025 -0.6235,-3.43283 -3.49375,-3.94167c1.39392,1.97442 1.634,3.16408 1.76658,4.62608c0.16125,1.79883 -0.07167,5.94833 -0.29742,6.72233c0.95317,-1.14308 2.31842,-2.91683 2.31842,-2.91683z" fill="#e4b120"></path><path d="M147.11733,56.16517c0,0 -0.18992,-3.76967 -0.29383,-4.48992c-0.10392,-0.72025 -0.56617,-3.27158 -3.27158,-3.91658c1.39392,1.97442 1.68417,3.00283 1.81317,4.46483c0.16125,1.79883 -0.0215,5.69392 -0.24367,6.46792c0.95317,-1.1395 1.99592,-2.52625 1.99592,-2.52625z" fill="#dfab1d"></path><path d="M147.11733,56.16517c0,0 -0.18992,-3.76967 -0.29383,-4.48992c-0.10392,-0.72025 -0.50525,-3.11392 -3.04942,-3.8915c1.39392,1.97442 1.73075,2.84158 1.86333,4.30358c0.16125,1.79883 0.02867,5.4395 -0.1935,6.2135c0.95317,-1.1395 1.67342,-2.13567 1.67342,-2.13567z" fill="#daa419"></path></g><g><path d="M161.637,31.67667c0,0 0.44433,0.03225 0.9245,0.387c-0.17917,0.70233 -3.02075,8.95833 -3.02075,8.95833l-3.70158,7.75075c-0.52675,0.9675 -2.11058,0.47658 -1.34017,-0.86358c0.97825,-1.6985 3.94883,-7.35658 3.94883,-7.35658z" fill="#fed335"></path><path d="M161.75525,31.72325c0.02867,0.01433 0.41208,0.03942 0.84208,0.3655c-0.15408,0.602 -2.96342,8.83292 -3.01358,8.95475c-0.05017,0.12183 -3.698,7.6755 -3.73383,7.72925c-0.4945,0.89225 -1.90633,0.44792 -1.19325,-0.78475c0.8815,-1.53008 3.9345,-7.38525 3.9345,-7.38525z" fill="#face34"></path><path d="M161.86992,31.77342c0.05733,0.02508 0.37625,0.05017 0.75608,0.34042c-0.129,0.50167 -2.90608,8.7075 -3.00642,8.94758c-0.10033,0.2365 -3.69083,7.60025 -3.76608,7.71133c-0.46225,0.817 -1.6985,0.41567 -1.04992,-0.70592c0.78833,-1.36167 3.92017,-7.41392 3.92017,-7.41392z" fill="#f7c834"></path><path d="M161.98817,31.82c0.086,0.03942 0.344,0.06092 0.67008,0.31892c-0.10392,0.40133 -2.84875,8.58208 -3.00283,8.94042c-0.15408,0.35833 -3.68725,7.52858 -3.80192,7.69342c-0.43358,0.74175 -1.49425,0.38342 -0.903,-0.6235c0.69158,-1.18967 3.90583,-7.44258 3.90583,-7.44258z" fill="#f3c333"></path><path d="M162.10642,31.87017c0.11825,0.05375 0.30817,0.06808 0.58408,0.29742c-0.07525,0.301 -2.79142,8.45667 -2.99567,8.93325c-0.20425,0.47658 -3.68008,7.45333 -3.83417,7.6755c-0.40133,0.6665 -1.28642,0.35475 -0.75967,-0.54467c0.59842,-1.02125 3.8915,-7.47125 3.8915,-7.47125z" fill="#f0bd32"></path><path d="M162.22108,31.91675c0.14692,0.0645 0.27592,0.07883 0.50167,0.27233c-0.05017,0.20067 -2.73408,8.33125 -2.9885,8.92967c-0.25442,0.59842 -3.6765,7.37808 -3.86642,7.654c-0.36908,0.59125 -1.07858,0.3225 -0.61275,-0.46583c0.50167,-0.84925 3.87717,-7.49992 3.87717,-7.49992z" fill="#ecb831"></path><path d="M162.33933,31.96692c0.17558,0.07883 0.24008,0.086 0.41567,0.25083c-0.02508,0.10033 -2.67675,8.20583 -2.98133,8.9225c-0.30458,0.71308 -3.67292,7.30642 -3.89867,7.63608c-0.33683,0.516 -0.87433,0.29383 -0.46942,-0.38342c0.40492,-0.68083 3.86283,-7.52858 3.86283,-7.52858z" fill="#e9b231"></path><path d="M162.45758,32.0135l-3.04942,8.89742c0,0 -3.53675,7.04842 -3.8485,7.56083c-0.344,0.56617 0.01792,0.74533 0.3225,0.30458c0.26517,-0.387 3.57617,-6.78325 3.93092,-7.61817c0.35475,-0.83492 2.97417,-8.91533 2.97417,-8.91533c-0.12542,-0.13258 -0.12542,-0.13617 -0.32967,-0.22933z" fill="#e5ad30"></path></g><g><path d="M23.82917,78.26358c0,0 -4.7085,-1.03917 -10.51708,-6.88358c-3.34683,-3.36475 -9.78967,-15.33308 -11.56342,-22.88317c-1.77375,-7.55008 -1.0535,-9.88283 -1.0535,-9.88283c0,0 0.22575,-2.51908 2.25392,-2.63375c-0.086,1.17175 -0.16842,2.5155 0.25083,4.48992c1.58742,7.98725 7.85825,22.0805 19.60083,33.33217c4.49708,4.59383 3.956,5.26392 1.02842,4.46125z" fill="url(#color-69__RolJCIjUvC-_gr69)"></path><path d="M23.82917,78.26358c0,0 -4.62608,-0.84208 -10.535,-6.86567c-3.32533,-3.38267 -9.77175,-15.351 -11.5455,-22.90108c-1.77375,-7.55008 -1.0535,-9.88283 -1.0535,-9.88283c0,0 0.22217,-2.32917 2.04967,-2.53342c-0.15767,1.27208 -0.22575,2.56567 0.172,4.57592c1.4835,7.92633 7.57517,21.89775 18.69067,32.723c4.51142,4.69058 4.73358,5.57925 2.22167,4.88408z" fill="url(#color-70__RolJCIjUvC-_gr70)"></path><path d="M23.82917,78.26358c0,0 -4.54008,-0.645 -10.55292,-6.84417c-3.30742,-3.40058 -9.75383,-15.3725 -11.53117,-22.92258c-1.77733,-7.55008 -1.0535,-9.88283 -1.0535,-9.88283c0,0 0.21858,-2.14283 1.849,-2.43308c-0.22933,1.37242 -0.2795,2.61583 0.08958,4.6655c1.37958,7.86542 7.29208,21.715 17.77692,32.11383c4.53292,4.78017 5.51833,5.89458 3.42208,5.30333z" fill="url(#color-71__RolJCIjUvC-_gr71)"></path><path d="M23.82917,78.26358c0,0 -4.45767,-0.44792 -10.56725,-6.82267c-3.2895,-3.42208 -9.7395,-15.394 -11.51325,-22.94408c-1.77375,-7.55008 -1.0535,-9.88283 -1.0535,-9.88283c0,0 0.215,-1.95292 1.64475,-2.32917c-0.301,1.46917 -0.33683,2.666 0.01075,4.7515c1.27567,7.80092 7.009,21.53225 16.86675,31.50467c4.54367,4.86975 6.29233,6.20633 4.61175,5.72258z" fill="url(#color-72__RolJCIjUvC-_gr72)"></path><path d="M23.82917,78.26358c0,0 -4.37167,-0.25083 -10.58517,-6.80475c-3.268,-3.44 -9.72158,-15.41192 -11.49892,-22.962c-1.77733,-7.55008 -1.0535,-9.88283 -1.0535,-9.88283c0,0 0.21142,-1.76658 1.4405,-2.22883c-0.37267,1.5695 -0.39417,2.71258 -0.06808,4.84108c1.17175,7.74 6.7295,21.3495 15.95658,30.8955c4.56158,4.95933 7.06992,6.52167 5.80858,6.14183z" fill="url(#color-73__RolJCIjUvC-_gr73)"></path><path d="M23.82917,78.26358c0,0 -4.28567,-0.05375 -10.5995,-6.78325c-3.25008,-3.45792 -9.70725,-15.43342 -11.481,-22.9835c-1.77375,-7.55008 -1.0535,-9.88283 -1.0535,-9.88283c0,0 0.20783,-1.58025 1.23625,-2.1285c-0.44433,1.66983 -0.44792,2.76275 -0.14692,4.92708c1.06783,7.67908 6.44642,21.16317 15.04283,30.28633c4.5795,5.0525 7.8475,6.837 7.00183,6.56467z" fill="url(#color-74__RolJCIjUvC-_gr74)"></path><path d="M23.82917,78.26358c0,0 -4.20325,0.14333 -10.61742,-6.76175c-3.23217,-3.47583 -9.68933,-15.45492 -11.46308,-23.005c-1.77375,-7.55008 -1.0535,-9.88283 -1.0535,-9.88283c0,0 0.20425,-1.39033 1.03558,-2.02458c-0.516,1.77017 -0.50525,2.81292 -0.22575,5.01667c0.96392,7.61458 6.16333,20.98042 14.13267,29.67717c4.59025,5.1385 8.6215,7.14875 8.1915,6.98033z" fill="url(#color-75__RolJCIjUvC-_gr75)"></path><path d="M23.82917,78.26358c0,0 -4.11725,0.34042 -10.63533,-6.74383c-3.21425,-3.49375 -9.67142,-15.47283 -11.44875,-23.02292c-1.77733,-7.55008 -1.0535,-9.88283 -1.0535,-9.88283c0,0 0.20067,-1.204 0.83133,-1.92425c-0.58767,1.8705 -0.56258,2.86308 -0.30817,5.10267c0.86,7.55367 5.88025,20.79767 13.21892,29.068c4.61533,5.23525 9.40983,7.46408 9.3955,7.40317z" fill="#b98423"></path></g><g><path d="M7.08783,30.45117l3.62992,10.44542l4.08142,8.46025c0.65933,1.20758 -0.75608,2.44383 -1.66625,0.73817c-0.93525,-1.75942 -3.77325,-8.85442 -3.77325,-8.85442l-3.12467,-9.77175c0,0 -0.07883,-0.39775 0.85283,-1.01767z" fill="#fbca2a"></path><path d="M6.97675,30.58375l3.612,10.40242c0,0 4.00258,8.39933 4.04558,8.48175c0.60558,1.11083 -0.65933,2.18583 -1.47992,0.66292c-0.8385,-1.56233 -3.73742,-8.70033 -3.78758,-8.81858c-0.05017,-0.11825 -3.14617,-9.70008 -3.14617,-9.70008c-0.01792,-0.06808 -0.06808,-0.4515 0.75608,-1.02842z" fill="#f6c528"></path><path d="M6.86208,30.71633l3.59767,10.35583c0,0 3.92375,8.33483 4.00975,8.50325c0.54825,1.01408 -0.56258,1.92425 -1.29,0.58408c-0.74533,-1.36883 -3.70158,-8.54625 -3.8055,-8.78275c-0.10033,-0.2365 -3.16408,-9.62842 -3.16408,-9.62842c-0.03583,-0.13258 -0.0645,-0.50167 0.65217,-1.032z" fill="#f2bf25"></path><path d="M6.74742,30.84892l3.57975,10.30925c0,0 3.84492,8.27392 3.97033,8.52117c0.49092,0.92092 -0.46225,1.66267 -1.10367,0.50525c-0.64858,-1.17175 -3.66933,-8.39217 -3.81983,-8.74692c-0.15408,-0.35833 -3.182,-9.55675 -3.182,-9.55675c-0.04658,-0.18992 -0.05017,-0.54467 0.55542,-1.032z" fill="#edba23"></path><path d="M6.63275,30.97792l3.56183,10.26625c0,0 3.76608,8.213 3.9345,8.54267c0.43717,0.82417 -0.3655,1.40108 -0.91733,0.43c-0.55183,-0.97467 -3.6335,-8.2345 -3.83775,-8.71108c-0.20067,-0.47658 -3.19633,-9.48508 -3.19633,-9.48508c-0.06092,-0.258 -0.043,-0.59483 0.45508,-1.04275z" fill="#e8b420"></path><path d="M6.51808,31.1105l3.54392,10.21967c0,0 3.69083,8.15208 3.89867,8.56417c0.37983,0.72742 -0.26517,1.1395 -0.72742,0.35117c-0.45508,-0.78117 -3.60125,-8.08042 -3.85567,-8.67525c-0.25083,-0.59483 -3.21425,-9.40983 -3.21425,-9.40983c-0.07525,-0.3225 -0.03225,-0.64858 0.35475,-1.04992z" fill="#e3af1e"></path><path d="M6.407,31.24308l3.52958,10.17308c0,0 3.612,8.08758 3.86283,8.58567c0.32608,0.63067 -0.16842,0.87792 -0.54108,0.27592c-0.35833,-0.58408 -3.56542,-7.92633 -3.87,-8.63942c-0.30817,-0.71667 -3.23575,-9.34175 -3.23575,-9.34175c-0.09317,-0.38342 -0.02867,-0.69517 0.25442,-1.0535z" fill="#dfa91b"></path><path d="M6.29233,31.37567l3.51167,10.1265c0,0 3.53317,8.02667 3.82342,8.60717c0.26875,0.53392 -0.06808,0.61992 -0.35117,0.19708c-0.26158,-0.39058 -3.52958,-7.76867 -3.88792,-8.60358c-0.35833,-0.83492 -3.25008,-9.2665 -3.25008,-9.2665c-0.1075,-0.4515 -0.0215,-0.74892 0.15408,-1.06067z" fill="#daa419"></path></g><g><path d="M4.05992,32.43275c-0.21142,1.505 1.78092,6.91225 3.1605,10.62458l3.78758,8.15567c0.56975,1.08933 -1.10725,2.2575 -1.87767,0.31533c-0.77042,-1.94217 -3.33608,-8.17358 -3.33608,-8.17358l-2.52267,-8.88308c-0.00717,-0.87433 0.19708,-1.53008 0.78833,-2.03892z" fill="url(#color-76__RolJCIjUvC-_gr76)"></path><path d="M3.97033,32.63342c-0.18275,1.29 1.96367,7.29925 3.14258,10.48125c0,0 3.73383,8.0625 3.78042,8.13775c0.53033,1.00333 -0.99975,2.06758 -1.70567,0.3225c-0.69517,-1.72358 -3.34325,-8.04458 -3.39342,-8.16283c-0.05017,-0.11825 -2.50117,-8.73258 -2.50117,-8.73258c-0.02867,-0.81342 0.129,-1.54442 0.67725,-2.04608z" fill="url(#color-77__RolJCIjUvC-_gr77)"></path><path d="M3.87717,32.83767c-0.1505,1.075 2.14283,7.68625 3.12467,10.33792c0,0 3.68008,7.96933 3.76967,8.11625c0.4945,0.91733 -0.89583,1.87767 -1.53367,0.33325c-0.6235,-1.50142 -3.35042,-7.912 -3.45075,-8.15208c-0.10033,-0.2365 -2.47967,-8.58208 -2.47967,-8.58208c-0.03942,-0.75608 0.06808,-1.56592 0.56975,-2.05325z" fill="url(#color-78__RolJCIjUvC-_gr78)"></path><path d="M3.784,33.03833c-0.12183,0.86 2.322,8.07325 3.10675,10.19458c0,0 3.62633,7.87617 3.7625,8.09475c0.45508,0.83133 -0.78833,1.68775 -1.36525,0.344c-0.54825,-1.27925 -3.354,-7.783 -3.50808,-8.14133c-0.15408,-0.35833 -2.46175,-8.43517 -2.46175,-8.43517c-0.04658,-0.69158 0.01075,-1.57667 0.46583,-2.05683z" fill="url(#color-79__RolJCIjUvC-_gr79)"></path><path d="M3.69083,33.24258c-0.08958,0.645 2.50117,8.46025 3.09242,10.05125c0,0 3.57258,7.783 3.75175,8.07325c0.41567,0.74533 -0.68083,1.49783 -1.19325,0.35117c-0.473,-1.06067 -3.36117,-7.654 -3.56542,-8.13058c-0.20425,-0.47658 -2.44025,-8.28467 -2.44025,-8.28467c-0.0645,-0.63067 -0.05733,-1.591 0.35475,-2.06042z" fill="url(#color-80__RolJCIjUvC-_gr80)"></path><path d="M3.60125,33.44683c-0.06092,0.43 2.68033,8.84725 3.0745,9.90792c0,0 3.51883,7.68983 3.74458,8.05175c0.37625,0.65933 -0.57333,1.30433 -1.02125,0.36192c-0.39775,-0.8385 -3.36833,-7.525 -3.61917,-8.11983c-0.25083,-0.59483 -2.42592,-8.13775 -2.42592,-8.13775c-0.07883,-0.56975 -0.12183,-1.60533 0.24725,-2.064z" fill="url(#color-81__RolJCIjUvC-_gr81)"></path><path d="M3.50808,33.6475c-0.02867,0.215 2.8595,9.23425 3.05658,9.76458c0,0 3.46508,7.59667 3.73383,8.03025c0.34042,0.57333 -0.46225,1.11442 -0.84925,0.36908c-0.3225,-0.61992 -3.37192,-7.39242 -3.6765,-8.10908c-0.30458,-0.71308 -2.40083,-7.98725 -2.40083,-7.98725c-0.09317,-0.50525 -0.18633,-1.61608 0.13617,-2.06758z" fill="url(#color-82__RolJCIjUvC-_gr82)"></path><path d="M3.41492,33.85175l3.04225,9.62125c0,0 3.41133,7.49992 3.72667,8.00875c0.301,0.48733 -0.35117,0.92092 -0.68083,0.37983c-0.24367,-0.40133 -3.37908,-7.26342 -3.73383,-8.09833c-0.35475,-0.83492 -2.37933,-7.84033 -2.37933,-7.84033c-0.11108,-0.44792 -0.25083,-1.63042 0.02508,-2.07117z" fill="#daa419"></path></g><g><path d="M25.20517,56.16517c0,0 0.18992,-3.76967 0.29383,-4.48992c0.10392,-0.72025 0.92092,-4.2355 4.60817,-4.07783c-1.39392,1.97442 -1.3975,3.96675 -1.53008,5.42875c-0.16125,1.79883 0.32967,7.22042 0.55183,7.99442c-0.95317,-1.1395 -3.92375,-4.85542 -3.92375,-4.85542z" fill="#fed232"></path><path d="M25.20517,56.16517c0,0 0.18992,-3.76967 0.29383,-4.48992c0.10392,-0.72025 0.86,-4.07425 4.386,-4.04917c-1.39392,1.97442 -1.44408,3.8055 -1.57667,5.2675c-0.16125,1.79883 0.27592,6.966 0.50167,7.74c-0.95675,-1.1395 -3.60483,-4.46842 -3.60483,-4.46842z" fill="#f9cb2e"></path><path d="M25.20517,56.16517c0,0 0.18992,-3.76967 0.29383,-4.48992c0.10392,-0.72025 0.80267,-3.913 4.16383,-4.02408c-1.39392,1.97442 -1.49067,3.64425 -1.62325,5.10625c-0.16125,1.79883 0.22575,6.71158 0.4515,7.48558c-0.95675,-1.1395 -3.28592,-4.07783 -3.28592,-4.07783z" fill="#f4c52b"></path><path d="M25.20517,56.16517c0,0 0.18992,-3.76967 0.29383,-4.48992c0.10392,-0.72025 0.74175,-3.75533 3.93808,-3.99542c-1.39392,1.97442 -1.54083,3.48658 -1.66983,4.94858c-0.16125,1.79883 0.17558,6.45717 0.39775,7.23117c-0.95317,-1.14308 -2.95983,-3.69442 -2.95983,-3.69442z" fill="#efbe27"></path><path d="M25.20517,56.16517c0,0 0.18992,-3.76967 0.29383,-4.48992c0.10392,-0.72025 0.68442,-3.59408 3.71592,-3.97033c-1.39392,1.97442 -1.58742,3.32533 -1.72,4.78733c-0.16125,1.79883 0.12542,6.20275 0.34758,6.97675c-0.95317,-1.14308 -2.63733,-3.30383 -2.63733,-3.30383z" fill="#e9b824"></path><path d="M25.20517,56.16517c0,0 0.18992,-3.76967 0.29383,-4.48992c0.10392,-0.72025 0.6235,-3.43283 3.49375,-3.94167c-1.39392,1.97442 -1.634,3.16408 -1.76658,4.62608c-0.16125,1.79883 0.07167,5.94833 0.29742,6.72233c-0.95317,-1.14308 -2.31842,-2.91683 -2.31842,-2.91683z" fill="#e4b120"></path><path d="M25.20517,56.16517c0,0 0.18992,-3.76967 0.29383,-4.48992c0.10392,-0.72025 0.56617,-3.27158 3.27158,-3.91658c-1.39392,1.97442 -1.68417,3.00283 -1.81317,4.46483c-0.16125,1.79883 0.0215,5.69392 0.24367,6.46792c-0.95317,-1.1395 -1.99592,-2.52625 -1.99592,-2.52625z" fill="#dfab1d"></path><path d="M25.20517,56.16517c0,0 0.18992,-3.76967 0.29383,-4.48992c0.10392,-0.72025 0.50525,-3.11392 3.04942,-3.8915c-1.39392,1.97442 -1.73075,2.84158 -1.86333,4.30358c-0.16125,1.79883 -0.02867,5.4395 0.1935,6.2135c-0.95317,-1.1395 -1.67342,-2.13567 -1.67342,-2.13567z" fill="#daa419"></path></g><g><path d="M10.6855,31.67667c0,0 -0.44433,0.03225 -0.9245,0.387c0.17917,0.70233 3.02075,8.95833 3.02075,8.95833l3.70158,7.75075c0.52675,0.9675 2.11058,0.47658 1.34017,-0.86358c-0.97825,-1.6985 -3.94883,-7.35658 -3.94883,-7.35658z" fill="#fed335"></path><path d="M10.57083,31.72325c-0.03225,0.01433 -0.41208,0.043 -0.84208,0.3655c0.15408,0.602 2.96342,8.83292 3.01358,8.95475c0.05017,0.11825 3.698,7.6755 3.73383,7.72925c0.4945,0.89225 1.90633,0.44792 1.19325,-0.78475c-0.8815,-1.53008 -3.9345,-7.38525 -3.9345,-7.38525z" fill="#face34"></path><path d="M10.45258,31.77342c-0.05733,0.02508 -0.37625,0.05017 -0.75608,0.34042c0.129,0.50167 2.90608,8.7075 3.00642,8.94758c0.10033,0.2365 3.69083,7.60025 3.76608,7.71133c0.46225,0.817 1.6985,0.41567 1.04992,-0.70592c-0.78833,-1.36167 -3.92017,-7.41392 -3.92017,-7.41392z" fill="#f7c834"></path><path d="M10.33433,31.82c-0.086,0.03942 -0.34042,0.06092 -0.67008,0.31892c0.10392,0.40133 2.84875,8.58208 3.00283,8.94042c0.15408,0.35833 3.68725,7.52858 3.80192,7.69342c0.43358,0.74175 1.49425,0.38342 0.903,-0.6235c-0.69158,-1.18967 -3.90583,-7.44258 -3.90583,-7.44258z" fill="#f3c333"></path><path d="M10.21967,31.87017c-0.11825,0.05017 -0.31175,0.06808 -0.58767,0.29383c0.07525,0.301 2.79142,8.45667 2.99567,8.93325c0.20425,0.47658 3.68008,7.45333 3.83417,7.6755c0.40133,0.6665 1.28642,0.35475 0.75967,-0.54467c-0.59842,-1.02125 -3.8915,-7.47125 -3.8915,-7.47125z" fill="#f0bd32"></path><path d="M10.10142,31.91675c-0.14692,0.0645 -0.27592,0.07883 -0.50167,0.27233c0.05017,0.20067 2.73408,8.33125 2.9885,8.92967c0.25442,0.59483 3.6765,7.37808 3.86642,7.654c0.36908,0.59125 1.07858,0.3225 0.61275,-0.46583c-0.50167,-0.84925 -3.87717,-7.49992 -3.87717,-7.49992z" fill="#ecb831"></path><path d="M9.98317,31.96692c-0.17558,0.07883 -0.24008,0.086 -0.41567,0.24725c0.02508,0.10033 2.67675,8.20583 2.98133,8.9225c0.30458,0.71308 3.67292,7.30642 3.89867,7.63608c0.33683,0.516 0.87433,0.29383 0.46942,-0.38342c-0.40492,-0.68083 -3.86283,-7.52858 -3.86283,-7.52858z" fill="#e9b231"></path><path d="M9.8685,32.0135l3.04942,8.89742c0,0 3.53675,7.04842 3.8485,7.56083c0.344,0.56617 -0.01792,0.74533 -0.3225,0.30458c-0.26517,-0.387 -3.57617,-6.78325 -3.93092,-7.61817c-0.35475,-0.83492 -2.97417,-8.91533 -2.97417,-8.91533c0.12183,-0.13258 0.12542,-0.13617 0.32967,-0.22933z" fill="#e5ad30"></path></g></g></g></svg>